<svg width="24" height="20" viewBox="0 0 24 20" fill="none" xmlns="http://www.w3.org/2000/svg">
<g clip-path="url(#clip0_5574_60475)">
<g filter="url(#filter0_d_5574_60475)">
<path d="M2.24194 4.11701C2.24194 3.09814 3.0679 2.27219 4.08677 2.27219H16.3971C17.416 2.27219 18.2419 3.09814 18.2419 4.11701V12.9101C18.2419 13.929 17.416 14.7549 16.3971 14.7549H13.7733C13.3408 14.7549 12.9293 14.9417 12.6444 15.2672L10.6182 17.5828C10.419 17.8105 10.0649 17.8105 9.86565 17.5828L7.83945 15.2672C7.55462 14.9417 7.14313 14.7549 6.71059 14.7549H4.08677C3.0679 14.7549 2.24194 13.929 2.24194 12.9101V4.11701Z" fill="#E3EFFF" stroke="#2388FF"/>
<path d="M10.2419 5.58252V7.92735" stroke="#8DC1FF" stroke-width="1.8" stroke-linecap="round" stroke-linejoin="round"/>
<path d="M10.8282 11.4446C10.8282 11.7683 10.5657 12.0308 10.242 12.0308C9.91827 12.0308 9.65576 11.7683 9.65576 11.4446C9.65576 11.1209 9.91827 10.8584 10.242 10.8584C10.5657 10.8584 10.8282 11.1209 10.8282 11.4446Z" stroke="#8DC1FF" stroke-linecap="round" stroke-linejoin="round"/>
</g>
</g>
<defs>
<filter id="filter0_d_5574_60475" x="-0.258057" y="0.772186" width="21" height="20.4814" filterUnits="userSpaceOnUse" color-interpolation-filters="sRGB">
<feFlood flood-opacity="0" result="BackgroundImageFix"/>
<feColorMatrix in="SourceAlpha" type="matrix" values="0 0 0 0 0 0 0 0 0 0 0 0 0 0 0 0 0 0 127 0" result="hardAlpha"/>
<feOffset dy="1"/>
<feGaussianBlur stdDeviation="1"/>
<feComposite in2="hardAlpha" operator="out"/>
<feColorMatrix type="matrix" values="0 0 0 0 0.1375 0 0 0 0 0.53425 0 0 0 0 1 0 0 0 0.15 0"/>
<feBlend mode="normal" in2="BackgroundImageFix" result="effect1_dropShadow_5574_60475"/>
<feBlend mode="normal" in="SourceGraphic" in2="effect1_dropShadow_5574_60475" result="shape"/>
</filter>
<clipPath id="clip0_5574_60475">
<rect width="24" height="20" fill="white"/>
</clipPath>
</defs>
</svg>
