<svg width="19" height="20" viewBox="0 0 19 20" fill="none" xmlns="http://www.w3.org/2000/svg">
<g clip-path="url(#clip0_10005_12281)">
<path d="M9.1875 2.05176C7.51287 2.05366 5.90737 2.71974 4.72322 3.90389C3.53908 5.08803 2.87299 6.69353 2.87109 8.36816C2.87109 13.773 8.61328 17.855 8.85804 18.0258C8.95459 18.0934 9.06962 18.1297 9.1875 18.1297C9.30538 18.1297 9.42041 18.0934 9.51696 18.0258C9.76172 17.855 15.5039 13.773 15.5039 8.36816C15.502 6.69353 14.8359 5.08803 13.6518 3.90389C12.4676 2.71974 10.8621 2.05366 9.1875 2.05176ZM9.1875 6.07129C9.64178 6.07129 10.0859 6.206 10.4636 6.45838C10.8413 6.71077 11.1357 7.06949 11.3095 7.48919C11.4834 7.90889 11.5289 8.37071 11.4402 8.81626C11.3516 9.26181 11.1329 9.67108 10.8116 9.9923C10.4904 10.3135 10.0811 10.5323 9.6356 10.6209C9.19005 10.7095 8.72822 10.664 8.30852 10.4902C7.88882 10.3164 7.5301 10.022 7.27772 9.64424C7.02533 9.26652 6.89062 8.82244 6.89062 8.36816C6.89062 7.75899 7.13262 7.17478 7.56336 6.74403C7.99411 6.31328 8.57833 6.07129 9.1875 6.07129Z" fill="#A4A6B0"/>
</g>
<defs>
<clipPath id="clip0_10005_12281">
<rect width="18.375" height="18.375" fill="white" transform="translate(0 0.90332)"/>
</clipPath>
</defs>
</svg>
