<svg width="24" height="24" viewBox="0 0 24 24" fill="none" xmlns="http://www.w3.org/2000/svg">
<rect x="22.2271" y="8.8186" width="21.8181" height="7.73573" rx="2.72727" transform="rotate(-180 22.2271 8.8186)" fill="#EAF4FF"/>
<rect x="22.6838" y="9.04401" width="21.8181" height="7.73573" rx="2.72727" transform="rotate(-180 22.6838 9.04401)" fill="#EAF4FF"/>
<path d="M7.10244 4.49437C6.72588 4.49437 6.42062 4.79963 6.42062 5.17619C6.42062 5.55274 6.72588 5.858 7.10244 5.858H16.4488C16.8254 5.858 17.1306 5.55274 17.1306 5.17619C17.1306 4.79963 16.8254 4.49437 16.4488 4.49437H7.10244Z" fill="#2388FF"/>
<path fill-rule="evenodd" clip-rule="evenodd" d="M0.669922 4.03342C0.669922 2.03177 2.29258 0.409119 4.29423 0.409119H19.7423C21.744 0.409119 23.3666 2.03178 23.3666 4.03342V19.4815C23.3666 21.4832 21.744 23.1058 19.7423 23.1058H4.29423C2.29258 23.1058 0.669922 21.4832 0.669922 19.4815V4.03342ZM4.29423 1.77276C3.04569 1.77276 2.03356 2.78489 2.03356 4.03342V8.1112H22.0029V4.03342C22.0029 2.78488 20.9908 1.77276 19.7423 1.77276H4.29423ZM2.03356 19.4815V9.47484H22.0029V19.4815C22.0029 20.73 20.9909 21.7421 19.7423 21.7421H4.29423C3.04569 21.7421 2.03356 20.73 2.03356 19.4815Z" fill="#2388FF"/>
</svg>
