<svg width="133" height="29" viewBox="0 0 133 29" fill="none" xmlns="http://www.w3.org/2000/svg">
<path fill-rule="evenodd" clip-rule="evenodd" d="M10.1568 0.811925V9.35652C5.00248 9.35693 0.824219 13.5354 0.824219 18.6898C0.824219 23.8445 5.0029 28.0232 10.1576 28.0232H18.602C19.0929 28.0232 19.4909 27.6252 19.4909 27.1343V18.6899C24.6455 18.6898 28.8241 14.5111 28.8241 9.35653C28.8241 4.20187 24.6448 0.0231934 19.4901 0.0231934H10.9455C10.5099 0.0231934 10.1568 0.37632 10.1568 0.811925ZM19.4909 18.6899H11.0463C10.5554 18.6899 10.1574 18.2919 10.1574 17.801L10.1568 9.35652L18.6066 9.35653C19.0829 9.35892 19.4707 9.73603 19.4901 10.2082L19.4909 18.6899Z" fill="#464851"/>
<path d="M41.4832 4.14361L46.2529 18.5692H46.4409L51.2017 4.14361H54.8528L48.3917 22.4709H44.2931L37.841 4.14361H41.4832Z" fill="#464851"/>
<path d="M92.8038 11.2311V8.72543H90.0923V5.43225H86.8528V8.72543H84.902V11.2311H86.8528V18.8734C86.8469 19.7325 87.0318 20.4484 87.4077 21.0212C87.7895 21.5939 88.3055 22.0175 88.9558 22.2919C89.6061 22.5604 90.3369 22.6827 91.1483 22.6588C91.6077 22.6469 91.9954 22.6051 92.3116 22.5335C92.6338 22.4619 92.8814 22.3963 93.0544 22.3367L92.5085 19.8041C92.419 19.828 92.2878 19.8548 92.1148 19.8847C91.9477 19.9145 91.7628 19.9294 91.5599 19.9294C91.2915 19.9294 91.0469 19.8877 90.8261 19.8041C90.6054 19.7206 90.4264 19.5655 90.2892 19.3388C90.1579 19.1061 90.0923 18.772 90.0923 18.3365V11.2311H92.8038Z" fill="#464851"/>
<path d="M110.846 8.72542V22.4709H114.086V14.39C114.086 13.8054 114.22 13.2893 114.488 12.8419C114.757 12.3945 115.124 12.0454 115.589 11.7949C116.061 11.5383 116.591 11.4101 117.182 11.4101C117.457 11.4101 117.74 11.431 118.032 11.4727C118.331 11.5085 118.548 11.5503 118.686 11.598V8.61803C118.536 8.5882 118.348 8.56732 118.122 8.55539C117.901 8.53749 117.701 8.52854 117.522 8.52854C116.735 8.52854 116.034 8.7463 115.419 9.18181C114.811 9.61135 114.381 10.2229 114.131 11.0163H113.987V8.72542H110.846Z" fill="#464851"/>
<path fill-rule="evenodd" clip-rule="evenodd" d="M122.786 21.8802C123.788 22.4529 124.978 22.7393 126.356 22.7393C127.424 22.7393 128.373 22.5782 129.202 22.256C130.031 21.9279 130.711 21.4685 131.242 20.8779C131.779 20.2813 132.143 19.5833 132.334 18.7839L129.309 18.4438C129.166 18.8316 128.954 19.1567 128.674 19.4192C128.394 19.6817 128.063 19.8816 127.681 20.0188C127.299 20.1501 126.872 20.2157 126.401 20.2157C125.697 20.2157 125.083 20.0665 124.558 19.7682C124.033 19.464 123.624 19.0285 123.332 18.4617C123.049 17.9083 122.903 17.2491 122.894 16.484H132.468V15.4907C132.468 14.2856 132.301 13.2475 131.967 12.3765C131.633 11.4995 131.174 10.7776 130.589 10.2109C130.01 9.6441 129.342 9.22648 128.585 8.95802C127.833 8.68359 127.033 8.54637 126.186 8.54637C124.874 8.54637 123.731 8.84765 122.759 9.45021C121.786 10.0468 121.029 10.882 120.486 11.9559C119.949 13.0238 119.68 14.2647 119.68 15.6786C119.68 17.1164 119.949 18.3663 120.486 19.4282C121.023 20.4842 121.789 21.3015 122.786 21.8802ZM122.9 14.3005C122.931 13.762 123.069 13.2638 123.314 12.806C123.594 12.287 123.985 11.8694 124.486 11.5532C124.987 11.231 125.569 11.07 126.231 11.07C126.851 11.07 127.394 11.2102 127.86 11.4905C128.331 11.7709 128.698 12.1557 128.96 12.645C129.223 13.1282 129.357 13.68 129.363 14.3005H122.9Z" fill="#464851"/>
<path d="M104.275 16.6899V8.72545H107.514V22.4709H104.373V20.0279H104.23C103.92 20.7975 103.409 21.4269 102.7 21.9161C101.996 22.4053 101.127 22.6499 100.095 22.6499C99.1945 22.6499 98.3981 22.45 97.706 22.0503C97.02 21.6446 96.483 21.057 96.0952 20.2874C95.7075 19.5118 95.5136 18.5752 95.5136 17.4774V8.72545H98.7531V16.9763C98.7531 17.8473 98.9917 18.5394 99.469 19.0524C99.9462 19.5655 100.573 19.822 101.348 19.822C101.826 19.822 102.288 19.7057 102.735 19.473C103.183 19.2404 103.55 18.8943 103.836 18.435C104.128 17.9696 104.275 17.388 104.275 16.6899Z" fill="#464851"/>
<path d="M73.8244 14.4168V22.4708H70.5849V8.72535H73.6812V11.061H73.8423C74.1585 10.2914 74.6626 9.67989 75.3547 9.22648C76.0527 8.77308 76.9148 8.54637 77.9409 8.54637C78.8895 8.54637 79.7158 8.74921 80.4197 9.15489C81.1297 9.56058 81.6785 10.1482 82.0663 10.9178C82.4601 11.6874 82.654 12.6211 82.648 13.7188V22.4708H79.4085V14.22C79.4085 13.3012 79.1699 12.5823 78.6926 12.0633C78.2213 11.5442 77.568 11.2847 76.7328 11.2847C76.166 11.2847 75.6619 11.41 75.2204 11.6606C74.7849 11.9052 74.4419 12.2601 74.1913 12.7255C73.9467 13.1908 73.8244 13.7546 73.8244 14.4168Z" fill="#464851"/>
<path fill-rule="evenodd" clip-rule="evenodd" d="M58.1631 21.8802C59.1653 22.4529 60.3555 22.7393 61.7337 22.7393C62.8016 22.7393 63.7501 22.5782 64.5794 22.256C65.4087 21.9279 66.0888 21.4685 66.6197 20.8779C67.1567 20.2813 67.5206 19.5833 67.7115 18.7839L64.6868 18.4438C64.5436 18.8316 64.3318 19.1567 64.0514 19.4192C63.771 19.6817 63.4399 19.8816 63.0581 20.0188C62.6763 20.1501 62.2497 20.2157 61.7784 20.2157C61.0744 20.2157 60.4599 20.0665 59.9349 19.7682C59.4099 19.464 59.0013 19.0285 58.709 18.4617C58.4265 17.9083 58.2805 17.2491 58.271 16.484H67.8457V15.4907C67.8457 14.2856 67.6787 13.2475 67.3446 12.3765C67.0105 11.4995 66.5511 10.7776 65.9665 10.2109C65.3878 9.6441 64.7196 9.22648 63.9619 8.95802C63.2102 8.68359 62.4108 8.54637 61.5636 8.54637C60.2511 8.54637 59.1087 8.84765 58.1362 9.45021C57.1638 10.0468 56.4061 10.882 55.8632 11.9559C55.3263 13.0238 55.0578 14.2647 55.0578 15.6786C55.0578 17.1164 55.3263 18.3663 55.8632 19.4282C56.4001 20.4842 57.1668 21.3015 58.1631 21.8802ZM64.7405 14.3005H58.2771C58.3082 13.762 58.4462 13.2638 58.6911 12.806C58.9715 12.287 59.3622 11.8694 59.8634 11.5532C60.3645 11.231 60.9462 11.07 61.6084 11.07C62.2288 11.07 62.7717 11.2102 63.2371 11.4905C63.7084 11.7709 64.0753 12.1557 64.3378 12.645C64.6003 13.1282 64.7345 13.68 64.7405 14.3005Z" fill="#464851"/>
</svg>
