<svg width="32" height="32" viewBox="0 0 32 32" fill="none" xmlns="http://www.w3.org/2000/svg">
<path d="M10.5105 21.4622C14.3247 25.2811 18.9425 28.2144 22.7145 28.2144C24.4073 28.2144 25.8933 27.6259 27.0857 26.3101C27.7824 25.536 28.1995 24.6442 28.1995 23.756C28.1995 23.0703 27.9354 22.4103 27.2883 21.9408L23.3114 19.1163C22.6959 18.6841 22.1697 18.4773 21.6973 18.4773C21.0995 18.4773 20.5626 18.8202 19.9589 19.4112L19.0273 20.3345C18.885 20.4767 18.6995 20.5412 18.5316 20.5412C18.333 20.5412 18.1321 20.4637 18.0006 20.3921C17.1876 19.9516 15.7944 18.7546 14.501 17.4718C13.2181 16.189 12.0211 14.7957 11.5912 13.9828C11.5196 13.8406 11.4421 13.6504 11.4421 13.4542C11.4421 13.2838 11.4961 13.1089 11.6383 12.9667L12.5722 12.0139C13.1525 11.4101 13.5061 10.8838 13.5061 10.2754C13.5061 9.80312 13.2969 9.28744 12.8459 8.66139L10.0532 4.72675C9.58589 4.06917 8.90247 3.78613 8.17433 3.78613C7.30271 3.78613 6.42154 4.16921 5.65204 4.90822C4.36815 6.12412 3.80078 7.63133 3.80078 9.30062C3.80078 13.0727 6.69166 17.6587 10.5105 21.4622Z" fill="white"/>
</svg>
