<svg width="28" height="28" viewBox="0 0 28 28" fill="none" xmlns="http://www.w3.org/2000/svg">
<path d="M0 14C0 6.26801 6.26801 0 14 0V0C21.732 0 28 6.26801 28 14V14C28 21.732 21.732 28 14 28V28C6.26801 28 0 21.732 0 14V14Z" fill="#14161C"/>
<circle cx="14.4956" cy="14.2695" r="7.9917" fill="white"/>
<circle cx="14.4958" cy="14.2695" r="5.90792" stroke="#202127"/>
<path d="M19.7308 7.41234L19.5219 6.84779C19.2964 6.23836 18.4344 6.23835 18.2089 6.84779L18 7.41234C17.7468 8.09664 17.2072 8.63616 16.5229 8.88938L15.9584 9.09828C15.349 9.32379 15.3489 10.1858 15.9584 10.4113L16.5229 10.6202C17.2072 10.8734 17.7468 11.4129 18 12.0972L18.2089 12.6618C18.4344 13.2712 19.2964 13.2712 19.5219 12.6618L19.7308 12.0972C19.984 11.4129 20.5235 10.8734 21.2078 10.6202L21.7724 10.4113C22.3818 10.1858 22.3818 9.32379 21.7724 9.09828L21.2078 8.88938C20.5235 8.63616 19.984 8.09664 19.7308 7.41234Z" fill="white" stroke="#14161C"/>
</svg>
