<svg width="33" height="33" viewBox="0 0 33 33" fill="none" xmlns="http://www.w3.org/2000/svg">
<path d="M30.4579 26.8111H27.8575C27.0034 26.8111 26.419 26.2277 26.419 25.3662V8.19648C26.419 7.33269 27.0034 6.75146 27.8575 6.75146H30.4579C31.3099 6.75146 31.8868 7.33269 31.8868 8.19648V25.3662C31.8868 26.2277 31.3099 26.8111 30.4579 26.8111Z" fill="#14161C"/>
<path d="M21.8218 26.8111H19.2401C18.3786 26.8111 17.8016 26.2277 17.8016 25.3662V12.7507C17.8016 11.8871 18.3786 11.3037 19.2401 11.3037H21.8218C22.676 11.3037 23.2603 11.8871 23.2603 12.7507V25.3662C23.2603 26.2277 22.676 26.8111 21.8218 26.8111Z" fill="#14161C"/>
<path d="M10.6158 26.8111H13.1958C14.0591 26.8111 14.6338 26.2277 14.6338 25.3662V16.9216C14.6338 16.0579 14.0591 15.4746 13.1958 15.4746H10.6158C9.75203 15.4746 9.1773 16.0579 9.1773 16.9216V25.3662C9.1773 26.2277 9.75203 26.8111 10.6158 26.8111Z" fill="#14161C"/>
<path d="M4.57102 26.8112H1.98929C1.12777 26.8112 0.550781 26.2279 0.550781 25.3664V20.4453C0.550781 19.5838 1.12777 19.0096 1.98929 19.0096H4.57102C5.43254 19.0096 6.00953 19.5838 6.00953 20.4453V25.3664C6.00953 26.2279 5.43254 26.8112 4.57102 26.8112Z" fill="#14161C"/>
</svg>
