<svg width="135" height="23" viewBox="0 0 135 23" fill="none" xmlns="http://www.w3.org/2000/svg">
<g clip-path="url(#clip0_9869_22244)">
<path fill-rule="evenodd" clip-rule="evenodd" d="M13.4571 0.787032C12.0906 -0.263934 10.1875 -0.262177 8.82293 0.791315L1.62928 6.34503C0.698209 7.06385 0.152943 8.17366 0.152943 9.34993V18.2037C0.152943 20.3003 1.85257 22 3.94916 22H15.4108C17.5074 22 19.207 20.3003 19.207 18.2037V13.5357C19.207 12.3537 18.6565 11.2391 17.7178 10.5208L13.448 7.25366C12.0857 6.21123 10.1936 6.21189 8.83206 7.25527L5.30155 9.96071C5.04553 10.1569 4.99703 10.5235 5.19322 10.7795L6.25894 12.1702C6.45513 12.4263 6.82172 12.4748 7.07775 12.2786L10.6082 9.57314C10.9225 9.33236 11.3591 9.33221 11.6735 9.57277L15.9432 12.8399C16.1598 13.0057 16.2869 13.2629 16.2869 13.5357V18.2037C16.2869 18.6876 15.8947 19.0798 15.4108 19.0798H3.94916C3.46533 19.0798 3.07311 18.6876 3.07311 18.2037V9.34993C3.07311 9.07848 3.19894 8.82237 3.41381 8.65649L10.6074 3.10278C10.9223 2.85967 11.3615 2.85926 11.6769 3.10179L19.3506 9.00349C19.6062 9.20013 19.9729 9.15227 20.1696 8.89659L21.2377 7.50773C21.4343 7.25205 21.3865 6.88537 21.1308 6.68873L13.4571 0.787032Z" fill="white"/>
</g>
<path d="M36.9 5.82H34.14V11.68H36.9C39.06 11.68 40.62 10.46 40.6 8.76C40.6 7.04 39.06 5.82 36.9 5.82ZM37.28 13.68H34.14V18H31.82V3.84H37.3C40.62 3.84 43 5.9 43 8.76C43 11.62 40.62 13.68 37.28 13.68ZM44.7853 7.84H46.8853V9.14C47.5053 8.1 48.4853 7.48 49.6453 7.48C50.0453 7.48 50.5053 7.58 50.9453 7.74V9.68C50.3853 9.44 49.7653 9.36 49.3653 9.36C47.9253 9.36 46.9653 10.64 46.9653 12.44V18H44.7853V7.84ZM56.7639 7.44C60.0039 7.44 62.2839 9.7 62.2839 12.92C62.2839 16.14 60.0039 18.4 56.7639 18.4C53.5039 18.4 51.2439 16.14 51.2439 12.92C51.2439 9.7 53.5039 7.44 56.7639 7.44ZM56.7639 16.46C58.7039 16.46 60.1239 14.98 60.1239 12.92C60.1239 10.86 58.7039 9.38 56.7639 9.38C54.8039 9.38 53.4239 10.86 53.4239 12.92C53.4239 14.98 54.8039 16.46 56.7639 16.46ZM69.5136 16.36C71.4536 16.36 72.8736 14.9 72.8736 12.92C72.8736 10.9 71.4336 9.48 69.5136 9.48C67.5736 9.48 66.1736 10.94 66.1736 12.92C66.1736 14.9 67.5736 16.36 69.5136 16.36ZM75.0336 12.92C75.0336 16.1 72.8936 18.4 69.9336 18.4C68.4136 18.4 67.1136 17.74 66.2536 16.62V22.6H64.0736V7.84H66.1936V9.26C67.0736 8.12 68.3736 7.44 69.9336 7.44C72.8736 7.44 75.0336 9.74 75.0336 12.92ZM78.613 11.98H84.933C84.693 10.38 83.413 9.26 81.733 9.26C80.093 9.26 78.893 10.36 78.613 11.98ZM76.353 12.8C76.353 9.68 78.633 7.44 81.793 7.44C84.953 7.44 87.193 9.68 87.193 12.82C87.193 13.06 87.173 13.36 87.153 13.6L78.593 13.58C78.853 15.38 80.113 16.58 81.773 16.58C83.133 16.58 84.393 15.78 84.773 14.66L86.813 14.96C86.233 16.96 84.133 18.4 81.813 18.4C78.633 18.4 76.353 16.06 76.353 12.8ZM88.9869 7.84H91.0869V9.14C91.7069 8.1 92.6869 7.48 93.8469 7.48C94.2469 7.48 94.7069 7.58 95.1469 7.74V9.68C94.5869 9.44 93.9669 9.36 93.5669 9.36C92.1269 9.36 91.1669 10.64 91.1669 12.44V18H88.9869V7.84ZM97.4309 15.14V9.54H95.8709V7.84H97.5509L97.8309 5.38H99.6109V7.84H102.091V9.54H99.6109V15C99.6109 15.92 100.171 16.56 101.091 16.56C101.371 16.56 101.851 16.5 102.231 16.38V18.12C101.711 18.3 100.991 18.4 100.431 18.4C98.6109 18.4 97.4309 17.08 97.4309 15.14ZM104.037 22.18V20.42C104.477 20.58 104.977 20.7 105.377 20.7C106.777 20.7 107.197 19.3 107.717 18.04L103.137 7.84H105.517L108.697 15.34L111.457 7.84H113.737L109.757 18.24C108.877 20.58 107.977 22.52 105.817 22.52C105.237 22.52 104.557 22.4 104.037 22.18ZM119.969 18L124.809 10.52L120.129 3.84H122.969L126.669 9.2L130.449 3.84H133.309L128.469 10.52L133.489 18H130.629L126.649 11.92L122.789 18H119.969Z" fill="white"/>
<defs>
<clipPath id="clip0_9869_22244">
<rect width="22" height="22" fill="white"/>
</clipPath>
</defs>
</svg>
