<svg width="14" height="14" viewBox="0 0 14 14" fill="none" xmlns="http://www.w3.org/2000/svg">
<path d="M6.99999 0C5.54181 0.0016542 4.14382 0.581647 3.11274 1.61274C2.08165 2.64382 1.50165 4.04181 1.5 5.49999C1.5 10.2062 6.49999 13.7606 6.71311 13.9093C6.79718 13.9682 6.89734 13.9998 6.99999 13.9998C7.10263 13.9998 7.20279 13.9682 7.28686 13.9093C7.49998 13.7606 12.5 10.2062 12.5 5.49999C12.4983 4.04181 11.9183 2.64382 10.8872 1.61274C9.85615 0.581647 8.45817 0.0016542 6.99999 0ZM6.99999 3.49999C7.39555 3.49999 7.78223 3.61729 8.11112 3.83705C8.44002 4.05681 8.69637 4.36917 8.84774 4.73462C8.99912 5.10007 9.03872 5.5022 8.96155 5.89017C8.88438 6.27813 8.6939 6.63449 8.4142 6.9142C8.13449 7.1939 7.77813 7.38438 7.39017 7.46155C7.0022 7.53872 6.60007 7.49912 6.23462 7.34774C5.86917 7.19637 5.55681 6.94002 5.33705 6.61112C5.11729 6.28223 4.99999 5.89555 4.99999 5.49999C4.99999 4.96955 5.2107 4.46085 5.58578 4.08578C5.96085 3.7107 6.46955 3.49999 6.99999 3.49999Z" fill="white"/>
</svg>
