<svg width="28" height="28" viewBox="0 0 28 28" fill="none" xmlns="http://www.w3.org/2000/svg">
<path d="M6.65625 17.6851V19.6034" stroke="white" stroke-width="0.784766" stroke-linecap="round" stroke-linejoin="round"/>
<path d="M21.043 17.6855V19.6039" stroke="white" stroke-width="0.784766" stroke-linecap="round" stroke-linejoin="round"/>
<path fill-rule="evenodd" clip-rule="evenodd" d="M9.05857 7.69922C8.70012 7.69922 8.35635 7.84161 8.10289 8.09508C7.84943 8.34854 7.70703 8.69231 7.70703 9.05076V11.8595C7.72404 11.5261 7.86397 11.2099 8.10113 10.9727C8.35459 10.7192 8.69836 10.5769 9.05681 10.5769H12.8934C13.2519 10.5769 13.5957 10.7192 13.8491 10.9727C13.8501 10.9737 13.8511 10.9747 13.8521 10.9757C13.8531 10.9747 13.8541 10.9737 13.855 10.9727C14.1085 10.7192 14.4523 10.5769 14.8107 10.5769H18.6474C19.0058 10.5769 19.3496 10.7192 19.603 10.9727C19.8565 11.2262 19.9989 11.5699 19.9989 11.9284V13.3671C19.9989 13.5757 19.8361 13.7463 19.6306 13.7588C19.8374 13.7477 20.0017 13.5765 20.0017 13.367V9.05076C20.0017 8.69231 19.8593 8.34854 19.6058 8.09508C19.3524 7.84161 19.0086 7.69922 18.6502 7.69922H9.05857ZM13.4595 11.8996C13.4593 11.9092 13.4592 11.9188 13.4592 11.9284V12.9748H8.49004V11.9284C8.49004 11.7781 8.54975 11.6339 8.65604 11.5276C8.76233 11.4213 8.9065 11.3616 9.05681 11.3616H12.8934C13.0438 11.3616 13.1879 11.4213 13.2942 11.5276C13.3937 11.6271 13.4524 11.7597 13.4595 11.8996ZM14.245 12.9748H19.2141V11.9284C19.2141 11.7781 19.1544 11.6339 19.0481 11.5276C18.9418 11.4213 18.7977 11.3616 18.6474 11.3616H14.8107C14.6604 11.3616 14.5162 11.4213 14.4099 11.5276C14.3105 11.6271 14.2518 11.7597 14.2447 11.8995C14.2449 11.9092 14.245 11.9188 14.245 11.9284V12.9748Z" fill="white"/>
<path d="M7.93513 13.3687H19.7647C20.1039 13.3687 20.4292 13.5034 20.669 13.7432C20.9089 13.9831 21.0436 14.3084 21.0436 14.6475V17.6849H6.65625V14.6475C6.65625 14.3084 6.79099 13.9831 7.03082 13.7432C7.27066 13.5034 7.59595 13.3687 7.93513 13.3687V13.3687Z" fill="white" stroke="white" stroke-width="0.784766" stroke-linecap="round" stroke-linejoin="round"/>
</svg>
