<svg width="52" height="52" viewBox="0 0 52 52" fill="none" xmlns="http://www.w3.org/2000/svg">
<path d="M18.5771 41.6405H33.423C35.8306 41.6405 37.0928 40.3494 37.0928 37.7503V26.5217C37.0928 23.9313 35.8306 22.6531 33.423 22.6531H18.5771C16.1667 22.6531 14.9072 23.9313 14.9072 26.5217V37.7503C14.9072 40.3494 16.1667 41.6405 18.5771 41.6405ZM17.8072 23.9852H20.776V18.638C20.776 14.9282 23.1573 12.8923 25.9935 12.8923C28.8241 12.8923 31.2398 14.9282 31.2398 18.638V23.9852H34.1956V18.9326C34.1956 13.0829 30.3241 10.0532 25.9935 10.0532C21.6759 10.0532 17.8072 13.0829 17.8072 18.9326V23.9852Z" fill="#14161C"/>
</svg>
