<svg width="28" height="29" viewBox="0 0 28 29" fill="none" xmlns="http://www.w3.org/2000/svg">
<path d="M0 14.3535C0 6.62153 6.26801 0.353516 14 0.353516V0.353516C21.732 0.353516 28 6.62153 28 14.3535V14.3535C28 22.0855 21.732 28.3535 14 28.3535V28.3535C6.26801 28.3535 0 22.0855 0 14.3535V14.3535Z" fill="#14161C"/>
<path d="M8.69017 14.0598C8.64832 14.063 8.6063 14.063 8.56445 14.0598V21.4884C8.56445 21.7915 8.68486 22.0822 8.89919 22.2965C9.11352 22.5108 9.40421 22.6312 9.70731 22.6312H18.8502C19.1533 22.6312 19.444 22.5108 19.6583 22.2965C19.8726 22.0822 19.993 21.7915 19.993 21.4884V14.0598C19.9512 14.063 19.9092 14.063 19.8673 14.0598H8.69017ZM18.2787 18.0598C18.2787 18.2114 18.2185 18.3567 18.1114 18.4639C18.0042 18.571 17.8589 18.6312 17.7073 18.6312C17.5558 18.6312 17.4104 18.571 17.3032 18.4639C17.1961 18.3567 17.1359 18.2114 17.1359 18.0598V15.7741C17.1359 15.6225 17.1961 15.4772 17.3032 15.37C17.4104 15.2629 17.5558 15.2027 17.7073 15.2027C17.8589 15.2027 18.0042 15.2629 18.1114 15.37C18.2185 15.4772 18.2787 15.6225 18.2787 15.7741V18.0598Z" fill="white"/>
<path d="M18.8502 6.63135H9.70731C9.40421 6.63135 9.11352 6.75176 8.89919 6.96608C8.68486 7.18041 8.56445 7.4711 8.56445 7.7742V12.9171C8.6063 12.9138 8.64832 12.9138 8.69017 12.9171H19.8673C19.9092 12.9138 19.9512 12.9138 19.993 12.9171V7.7742C19.993 7.4711 19.8726 7.18041 19.6583 6.96608C19.444 6.75176 19.1533 6.63135 18.8502 6.63135ZM18.2787 11.7742C18.2787 11.9258 18.2185 12.0711 18.1114 12.1783C18.0042 12.2854 17.8589 12.3456 17.7073 12.3456C17.5558 12.3456 17.4104 12.2854 17.3032 12.1783C17.1961 12.0711 17.1359 11.9258 17.1359 11.7742V9.48849C17.1359 9.33694 17.1961 9.19159 17.3032 9.08443C17.4104 8.97727 17.5558 8.91706 17.7073 8.91706C17.8589 8.91706 18.0042 8.97727 18.1114 9.08443C18.2185 9.19159 18.2787 9.33694 18.2787 9.48849V11.7742Z" fill="white"/>
</svg>
