<svg width="28" height="28" viewBox="0 0 28 28" fill="none" xmlns="http://www.w3.org/2000/svg">
<path d="M21.2784 13.083V15.561C21.2784 17.3858 19.7991 18.8651 17.9743 18.8651H9.7142C7.88943 18.8651 6.41016 17.3858 6.41016 15.561V13.5786C6.41016 13.3049 6.63205 13.083 6.90576 13.083H21.2784Z" fill="white" stroke="white" stroke-width="0.941667" stroke-linecap="round" stroke-linejoin="round"/>
<path d="M9.71426 13.083H5.74609" stroke="white" stroke-width="0.941667" stroke-linecap="round"/>
<path d="M21.9408 13.083H17.9727" stroke="white" stroke-width="0.941667" stroke-linecap="round"/>
<path d="M17.1484 18.8652L17.9744 20.5173" stroke="white" stroke-width="0.941667" stroke-linecap="round" stroke-linejoin="round"/>
<path d="M10.5409 18.8652L9.71484 20.5173" stroke="white" stroke-width="0.941667" stroke-linecap="round" stroke-linejoin="round"/>
<path d="M21.2779 13.0827V10.4808C21.2779 8.65603 19.7986 7.17676 17.9738 7.17676H13.8438" stroke="white" stroke-width="0.941667" stroke-linecap="round" stroke-linejoin="round"/>
<path d="M15.4157 9.48558H12.2757C12.1227 9.48558 12.0004 9.36169 12.0172 9.20958C12.0846 8.59686 12.3972 7.17676 13.8457 7.17676C15.2942 7.17676 15.6067 8.59686 15.6742 9.20958C15.6909 9.36168 15.5687 9.48558 15.4157 9.48558Z" fill="white" stroke="white" stroke-width="0.941667" stroke-linecap="round" stroke-linejoin="round"/>
</svg>
