<svg width="28" height="29" viewBox="0 0 28 29" fill="none" xmlns="http://www.w3.org/2000/svg">
<path d="M0 14.2651C0 6.53315 6.26801 0.265137 14 0.265137V0.265137C21.732 0.265137 28 6.53315 28 14.2651V14.2651C28 21.9971 21.732 28.2651 14 28.2651V28.2651C6.26801 28.2651 0 21.9971 0 14.2651V14.2651Z" fill="#14161C"/>
<path d="M18.9935 10.5436V18.5425C18.9935 18.8076 18.8882 19.062 18.7007 19.2495C18.5132 19.437 18.2588 19.5423 17.9937 19.5423H16.9938C16.7286 19.5423 16.4743 19.437 16.2868 19.2495C16.0993 19.062 15.9939 18.8076 15.9939 18.5425V15.0429H12.9943V18.5425C12.9943 18.8076 12.889 19.062 12.7015 19.2495C12.514 19.437 12.2597 19.5423 11.9945 19.5423H10.9946C10.7294 19.5423 10.4751 19.437 10.2876 19.2495C10.1001 19.062 9.99476 18.8076 9.99476 18.5425V10.5436C9.99476 10.2784 10.1001 10.0241 10.2876 9.83655C10.4751 9.64904 10.7294 9.5437 10.9946 9.5437H11.9945C12.2597 9.5437 12.514 9.64904 12.7015 9.83655C12.889 10.0241 12.9943 10.2784 12.9943 10.5436V14.0431H15.9939V10.5436C15.9939 10.2784 16.0993 10.0241 16.2868 9.83655C16.4743 9.64904 16.7286 9.5437 16.9938 9.5437H17.9937C18.2588 9.5437 18.5132 9.64904 18.7007 9.83655C18.8882 10.0241 18.9935 10.2784 18.9935 10.5436ZM8.74493 11.0435H8.49496C8.22978 11.0435 7.97547 11.1488 7.78795 11.3363C7.60044 11.5239 7.4951 11.7782 7.4951 12.0434V14.0431H7.01204C6.88285 14.0412 6.75773 14.0883 6.66185 14.1749C6.56597 14.2615 6.50644 14.3812 6.49524 14.5099C6.4907 14.5783 6.50027 14.6469 6.52335 14.7114C6.54643 14.7759 6.58254 14.835 6.62942 14.885C6.6763 14.935 6.73296 14.9748 6.79588 15.002C6.8588 15.0292 6.92664 15.0431 6.99517 15.0429H7.4951V17.0427C7.4951 17.3079 7.60044 17.5622 7.78795 17.7497C7.97547 17.9372 8.22978 18.0425 8.49496 18.0425H8.74493C8.81123 18.0425 8.8748 18.0162 8.92168 17.9693C8.96856 17.9224 8.9949 17.8589 8.9949 17.7926V11.2935C8.9949 11.2272 8.96856 11.1636 8.92168 11.1167C8.8748 11.0698 8.81123 11.0435 8.74493 11.0435ZM22.493 14.5099C22.4819 14.3814 22.4225 14.2619 22.3269 14.1753C22.2313 14.0887 22.1065 14.0415 21.9775 14.0431H21.4932V12.0434C21.4932 11.7782 21.3878 11.5239 21.2003 11.3363C21.0128 11.1488 20.7585 11.0435 20.4933 11.0435H20.2434C20.1771 11.0435 20.1135 11.0698 20.0666 11.1167C20.0197 11.1636 19.9934 11.2272 19.9934 11.2935V17.7926C19.9934 17.8589 20.0197 17.9224 20.0666 17.9693C20.1135 18.0162 20.1771 18.0425 20.2434 18.0425H20.4933C20.7585 18.0425 21.0128 17.9372 21.2003 17.7497C21.3878 17.5622 21.4932 17.3079 21.4932 17.0427V15.0429H21.9931C22.0616 15.0431 22.1295 15.0292 22.1924 15.002C22.2553 14.9748 22.312 14.935 22.3589 14.885C22.4057 14.835 22.4418 14.7759 22.4649 14.7114C22.488 14.6469 22.4976 14.5783 22.493 14.5099Z" fill="white"/>
</svg>
