<svg width="28" height="29" viewBox="0 0 28 29" fill="none" xmlns="http://www.w3.org/2000/svg">
<path d="M0 14.3535C0 6.62153 6.26801 0.353516 14 0.353516V0.353516C21.732 0.353516 28 6.62153 28 14.3535V14.3535C28 22.0855 21.732 28.3535 14 28.3535V28.3535C6.26801 28.3535 0 22.0855 0 14.3535V14.3535Z" fill="#14161C"/>
<path d="M14.125 6.63135C14.0098 6.63135 13.8993 6.67884 13.8178 6.76337C13.7363 6.84789 13.6905 6.96254 13.6905 7.08208V10.439C13.6905 10.5586 13.6447 10.6732 13.5632 10.7578C13.4818 10.8423 13.3713 10.8898 13.256 10.8898H13.0614C13.0043 10.89 12.9477 10.8785 12.8949 10.8559C12.842 10.8334 12.7941 10.8002 12.7537 10.7583C12.7133 10.7164 12.6813 10.6666 12.6595 10.6118C12.6377 10.557 12.6267 10.4983 12.6269 10.439V7.08208C12.6269 6.96254 12.5811 6.84789 12.4996 6.76337C12.4182 6.67884 12.3076 6.63135 12.1924 6.63135H12.1051C12.0481 6.63135 11.9916 6.64302 11.9389 6.66567C11.8862 6.68832 11.8383 6.72151 11.7979 6.76337C11.7576 6.80522 11.7255 6.85491 11.7037 6.90959C11.6819 6.96428 11.6707 7.02289 11.6707 7.08208V10.439C11.6707 10.5586 11.6249 10.6732 11.5434 10.7578C11.4619 10.8423 11.3514 10.8898 11.2361 10.8898H11.0399C10.9246 10.8898 10.8141 10.8423 10.7326 10.7578C10.6511 10.6732 10.6053 10.5586 10.6053 10.439V7.08208C10.6053 7.02289 10.5941 6.96428 10.5723 6.90959C10.5504 6.85491 10.5184 6.80522 10.4781 6.76337C10.4377 6.72151 10.3898 6.68832 10.3371 6.66567C10.2844 6.64302 10.2279 6.63135 10.1709 6.63135C10.1138 6.63135 10.0573 6.64302 10.0046 6.66567C9.95185 6.68832 9.90393 6.72151 9.86358 6.76337C9.82324 6.80522 9.79122 6.85491 9.76938 6.90959C9.74755 6.96428 9.73633 7.02289 9.73633 7.08208V11.1734C9.73624 11.9161 10.0183 12.6289 10.5215 13.1573C10.9574 13.6175 11.2432 14.2079 11.3385 14.8454C11.415 15.3636 11.4308 15.8895 11.3855 16.4116L11.0315 21.3905C11.0212 21.5492 11.0424 21.7083 11.0939 21.8581C11.1453 22.0078 11.2259 22.145 11.3306 22.2611C11.4353 22.3773 11.5618 22.4699 11.7024 22.5331C11.843 22.5964 11.9947 22.6291 12.1479 22.6291C12.3012 22.6291 12.4528 22.5964 12.5934 22.5331C12.734 22.4699 12.8606 22.3773 12.9653 22.2611C13.0699 22.145 13.1505 22.0078 13.202 21.8581C13.2534 21.7083 13.2747 21.5492 13.2644 21.3905L12.9104 16.4116C12.8648 15.8895 12.8812 15.3635 12.9591 14.8454C13.0536 14.2076 13.3395 13.617 13.7761 13.1573C14.2782 12.6283 14.5595 11.9158 14.5596 11.1734V7.08208C14.5596 6.96254 14.5138 6.84789 14.4323 6.76337C14.3508 6.67884 14.2403 6.63135 14.125 6.63135Z" fill="white"/>
<path d="M17.7563 6.63135H17.6725C17.5213 6.6313 17.3718 6.66469 17.234 6.72928C17.0963 6.79387 16.9734 6.88818 16.8735 7.00592C16.7737 7.12367 16.6992 7.26214 16.655 7.41211C16.6108 7.56208 16.5979 7.7201 16.6172 7.87564L17.0098 11.0586C17.0223 11.1587 17.0155 11.2604 16.9899 11.3578C16.9642 11.4551 16.9202 11.5463 16.8605 11.6259L16.0804 12.6579C15.6885 13.1776 15.4753 13.8184 15.4747 14.4782V14.915C15.4675 16.7345 15.7901 18.5392 16.4259 20.235C16.9057 21.4967 17.5449 22.6313 18.2881 22.6313C18.3605 22.63 18.4318 22.6137 18.498 22.5833C18.5641 22.5529 18.6237 22.5091 18.6733 22.4545C18.7228 22.3998 18.7614 22.3354 18.7866 22.2651C18.8117 22.1947 18.8231 22.1198 18.8199 22.0449V7.73468C18.8199 7.58979 18.7925 7.44632 18.739 7.31246C18.6856 7.17859 18.6072 7.05697 18.5084 6.95451C18.4096 6.85206 18.2924 6.77078 18.1633 6.71533C18.0343 6.65989 17.896 6.63135 17.7563 6.63135Z" fill="white"/>
</svg>
