<svg width="184" height="33" viewBox="0 0 184 33" fill="none" xmlns="http://www.w3.org/2000/svg">
<g clip-path="url(#clip0_9888_6742)">
<path fill-rule="evenodd" clip-rule="evenodd" d="M19.079 1.78349C17.1846 0.326474 14.5462 0.32891 12.6544 1.78943L2.68136 9.4889C1.39055 10.4854 0.634619 12.0241 0.634619 13.6548V25.9294C0.634619 28.836 2.99092 31.1923 5.89756 31.1923H21.7876C24.6942 31.1923 27.0505 28.836 27.0505 25.9294V19.4577C27.0505 17.819 26.2872 16.2739 24.9858 15.2781L19.0665 10.7486C17.1778 9.3034 14.5547 9.30432 12.667 10.7508L7.77247 14.5015C7.41752 14.7735 7.35028 15.2818 7.62227 15.6367L9.09974 17.5648C9.37174 17.9197 9.87997 17.987 10.2349 17.715L15.1295 13.9642C15.5651 13.6304 16.1704 13.6302 16.6063 13.9637L22.5256 18.4932C22.826 18.723 23.0021 19.0796 23.0021 19.4577V25.9294C23.0021 26.6001 22.4584 27.1439 21.7876 27.1439H5.89756C5.2268 27.1439 4.68303 26.6001 4.68303 25.9294V13.6548C4.68303 13.2785 4.85748 12.9234 5.15536 12.6934L15.1284 4.99396C15.5649 4.65692 16.1738 4.65636 16.611 4.99259L27.2495 13.1745C27.604 13.4471 28.1123 13.3808 28.3849 13.0263L29.8658 11.1008C30.1384 10.7464 30.072 10.238 29.7176 9.9654L19.079 1.78349Z" fill="#14161C"/>
</g>
<path d="M48.3159 9.05647H44.4895V17.1806H48.3159C51.3105 17.1806 53.4732 15.4892 53.4455 13.1324C53.4455 10.7478 51.3105 9.05647 48.3159 9.05647ZM48.8427 19.9533H44.4895V25.9424H41.2732V6.31147H48.8705C53.4732 6.31147 56.7727 9.16738 56.7727 13.1324C56.7727 17.0974 53.4732 19.9533 48.8427 19.9533ZM59.2478 11.8569H62.1592V13.6592C63.0187 12.2174 64.3774 11.3578 65.9855 11.3578C66.5401 11.3578 67.1778 11.4965 67.7878 11.7183V14.4078C67.0115 14.0751 66.1519 13.9642 65.5974 13.9642C63.601 13.9642 62.2701 15.7387 62.2701 18.2342V25.9424H59.2478V11.8569ZM75.8545 11.3024C80.3463 11.3024 83.5072 14.4356 83.5072 18.8997C83.5072 23.3637 80.3463 26.4969 75.8545 26.4969C71.335 26.4969 68.2018 23.3637 68.2018 18.8997C68.2018 14.4356 71.335 11.3024 75.8545 11.3024ZM75.8545 23.8074C78.5441 23.8074 80.5127 21.7556 80.5127 18.8997C80.5127 16.0437 78.5441 13.9919 75.8545 13.9919C73.1372 13.9919 71.2241 16.0437 71.2241 18.8997C71.2241 21.7556 73.1372 23.8074 75.8545 23.8074ZM93.5302 23.6687C96.2198 23.6687 98.1884 21.6447 98.1884 18.8997C98.1884 16.0992 96.192 14.1306 93.5302 14.1306C90.8407 14.1306 88.8998 16.1547 88.8998 18.8997C88.8998 21.6447 90.8407 23.6687 93.5302 23.6687ZM101.183 18.8997C101.183 23.3083 98.2161 26.4969 94.1125 26.4969C92.0052 26.4969 90.2029 25.5819 89.0107 24.0292V32.3197H85.9884V11.8569H88.9275V13.8256C90.1475 12.2451 91.9498 11.3024 94.1125 11.3024C98.1884 11.3024 101.183 14.491 101.183 18.8997ZM106.145 17.5965H114.907C114.574 15.3783 112.8 13.8256 110.471 13.8256C108.197 13.8256 106.533 15.3506 106.145 17.5965ZM103.012 18.7333C103.012 14.4078 106.173 11.3024 110.554 11.3024C114.935 11.3024 118.04 14.4078 118.04 18.761C118.04 19.0937 118.013 19.5097 117.985 19.8424L106.118 19.8147C106.478 22.3101 108.225 23.9737 110.526 23.9737C112.412 23.9737 114.158 22.8647 114.685 21.3119L117.513 21.7278C116.709 24.5006 113.798 26.4969 110.582 26.4969C106.173 26.4969 103.012 23.2528 103.012 18.7333ZM120.527 11.8569H123.439V13.6592C124.298 12.2174 125.657 11.3578 127.265 11.3578C127.82 11.3578 128.457 11.4965 129.067 11.7183V14.4078C128.291 14.0751 127.431 13.9642 126.877 13.9642C124.88 13.9642 123.55 15.7387 123.55 18.2342V25.9424H120.527V11.8569ZM132.234 21.9774V14.2137H130.071V11.8569H132.4L132.788 8.44647H135.256V11.8569H138.694V14.2137H135.256V21.7833C135.256 23.0587 136.032 23.946 137.308 23.946C137.696 23.946 138.362 23.8628 138.888 23.6965V26.1087C138.167 26.3583 137.169 26.4969 136.393 26.4969C133.87 26.4969 132.234 24.6669 132.234 21.9774ZM141.392 31.7374V29.2974C142.002 29.5192 142.695 29.6856 143.25 29.6856C145.191 29.6856 145.773 27.7447 146.494 25.9978L140.144 11.8569H143.444L147.852 22.2547L151.679 11.8569H154.84L149.322 26.2751C148.102 29.5192 146.854 32.2087 143.86 32.2087C143.056 32.2087 142.113 32.0424 141.392 31.7374ZM163.48 25.9424L170.19 15.5724L163.701 6.31147H167.639L172.768 13.7424L178.009 6.31147H181.974L175.264 15.5724L182.223 25.9424H178.258L172.741 17.5133L167.389 25.9424H163.48Z" fill="#14161C"/>
<defs>
<clipPath id="clip0_9888_6742">
<rect width="30.5" height="30.5" fill="white" transform="translate(0.25 0.692383)"/>
</clipPath>
</defs>
</svg>
