<svg width="20" height="19" viewBox="0 0 20 19" fill="none" xmlns="http://www.w3.org/2000/svg">
<path d="M18.4066 8.87964V11.702C18.4066 13.7802 16.7218 15.4651 14.6435 15.4651H5.23576C3.15745 15.4651 1.47266 13.7802 1.47266 11.702V9.4441C1.47266 9.13233 1.72538 8.87964 2.03712 8.87964H18.4066Z" fill="#A4A6B0" stroke="#A4A6B0" stroke-width="1.0725" stroke-linecap="round" stroke-linejoin="round"/>
<path d="M5.23434 8.87964H0.714844" stroke="#A4A6B0" stroke-width="1.0725" stroke-linecap="round"/>
<path d="M19.1601 8.87964H14.6406" stroke="#A4A6B0" stroke-width="1.0725" stroke-linecap="round"/>
<path d="M13.7031 15.4653L14.6439 17.3469" stroke="#A4A6B0" stroke-width="1.0725" stroke-linecap="round" stroke-linejoin="round"/>
<path d="M6.1771 15.4653L5.23633 17.3469" stroke="#A4A6B0" stroke-width="1.0725" stroke-linecap="round" stroke-linejoin="round"/>
<path d="M18.4045 8.87959V5.91618C18.4045 3.83787 16.7196 2.15308 14.6414 2.15308H9.9375" stroke="#A4A6B0" stroke-width="1.0725" stroke-linecap="round" stroke-linejoin="round"/>
<path d="M11.7259 4.78268H8.1497C7.97542 4.78268 7.8362 4.64157 7.85527 4.46834C7.93208 3.77049 8.28806 2.15308 9.93781 2.15308C11.5876 2.15308 11.9436 3.77049 12.0204 4.46834C12.0394 4.64157 11.9002 4.78268 11.7259 4.78268Z" fill="#A4A6B0" stroke="#A4A6B0" stroke-width="1.0725" stroke-linecap="round" stroke-linejoin="round"/>
</svg>
