<svg width="14" height="14" viewBox="0 0 14 14" fill="none" xmlns="http://www.w3.org/2000/svg">
<path d="M13.4202 1.91569V9.94202C13.4198 10.0182 13.4031 10.0934 13.3713 10.1626C13.3395 10.2318 13.2932 10.2934 13.2356 10.3433C12.2136 11.2282 11.2364 11.5473 10.3047 11.5473C9.03988 11.5473 7.85867 10.9627 6.75973 10.4203C4.98391 9.5407 3.44018 8.77887 1.6483 10.1942V13.1525C1.6483 13.2945 1.59193 13.4306 1.49158 13.5309C1.39123 13.6313 1.25513 13.6876 1.11321 13.6876C0.971299 13.6876 0.835197 13.6313 0.734849 13.5309C0.6345 13.4306 0.578125 13.2945 0.578125 13.1525V1.91569C0.578638 1.83946 0.595434 1.76422 0.627387 1.69501C0.65934 1.62579 0.705712 1.56421 0.763399 1.51437C3.1713 -0.571134 5.33239 0.497036 7.2373 1.43946C9.07265 2.34777 10.6639 3.13302 12.5347 1.51437C12.612 1.44734 12.7069 1.40389 12.8082 1.38917C12.9095 1.37445 13.0128 1.38908 13.106 1.43132C13.1992 1.47355 13.2784 1.54164 13.3341 1.62749C13.3898 1.71334 13.4197 1.81336 13.4202 1.91569Z" fill="white"/>
</svg>
