<svg width="28" height="29" viewBox="0 0 28 29" fill="none" xmlns="http://www.w3.org/2000/svg">
<path d="M7.28554 23.6526H20.722C22.8298 23.6526 23.9175 22.565 23.9175 20.4812V8.59604C23.9175 6.5105 22.8298 5.42456 20.722 5.42456H7.28554C5.17773 5.42456 4.08203 6.50249 4.08203 8.59604V20.4812C4.08203 22.573 5.17773 23.6526 7.28554 23.6526ZM7.25858 21.7394C6.43866 21.7394 5.9953 21.3191 5.9953 20.4601V11.4374C5.9953 10.5865 6.43866 10.1599 7.25858 10.1599H20.733C21.5529 10.1599 22.0043 10.5865 22.0043 11.4374V20.4601C22.0043 21.3191 21.5529 21.7394 20.733 21.7394H7.25858ZM12.125 13.5445H12.7012C13.0482 13.5445 13.1609 13.4415 13.1609 13.0945V12.5183C13.1609 12.1712 13.0482 12.0603 12.7012 12.0603H12.125C11.7779 12.0603 11.6572 12.1712 11.6572 12.5183V13.0945C11.6572 13.4415 11.7779 13.5445 12.125 13.5445ZM15.3162 13.5445H15.8923C16.2394 13.5445 16.3619 13.4415 16.3619 13.0945V12.5183C16.3619 12.1712 16.2394 12.0603 15.8923 12.0603H15.3162C14.9691 12.0603 14.8484 12.1712 14.8484 12.5183V13.0945C14.8484 13.4415 14.9691 13.5445 15.3162 13.5445ZM18.5091 13.5445H19.0853C19.4324 13.5445 19.5531 13.4415 19.5531 13.0945V12.5183C19.5531 12.1712 19.4324 12.0603 19.0853 12.0603H18.5091C18.1621 12.0603 18.0494 12.1712 18.0494 12.5183V13.0945C18.0494 13.4415 18.1621 13.5445 18.5091 13.5445ZM8.93378 16.6868H9.50018C9.85702 16.6868 9.96971 16.5839 9.96971 16.2368V15.6607C9.96971 15.3136 9.85702 15.2107 9.50018 15.2107H8.93378C8.57694 15.2107 8.46425 15.3136 8.46425 15.6607V16.2368C8.46425 16.5839 8.57694 16.6868 8.93378 16.6868ZM12.125 16.6868H12.7012C13.0482 16.6868 13.1609 16.5839 13.1609 16.2368V15.6607C13.1609 15.3136 13.0482 15.2107 12.7012 15.2107H12.125C11.7779 15.2107 11.6572 15.3136 11.6572 15.6607V16.2368C11.6572 16.5839 11.7779 16.6868 12.125 16.6868ZM15.3162 16.6868H15.8923C16.2394 16.6868 16.3619 16.5839 16.3619 16.2368V15.6607C16.3619 15.3136 16.2394 15.2107 15.8923 15.2107H15.3162C14.9691 15.2107 14.8484 15.3136 14.8484 15.6607V16.2368C14.8484 16.5839 14.9691 16.6868 15.3162 16.6868ZM18.5091 16.6868H19.0853C19.4324 16.6868 19.5531 16.5839 19.5531 16.2368V15.6607C19.5531 15.3136 19.4324 15.2107 19.0853 15.2107H18.5091C18.1621 15.2107 18.0494 15.3136 18.0494 15.6607V16.2368C18.0494 16.5839 18.1621 16.6868 18.5091 16.6868ZM8.93378 19.8372H9.50018C9.85702 19.8372 9.96971 19.728 9.96971 19.3792V18.8048C9.96971 18.456 9.85702 18.3548 9.50018 18.3548H8.93378C8.57694 18.3548 8.46425 18.456 8.46425 18.8048V19.3792C8.46425 19.728 8.57694 19.8372 8.93378 19.8372ZM12.125 19.8372H12.7012C13.0482 19.8372 13.1609 19.728 13.1609 19.3792V18.8048C13.1609 18.456 13.0482 18.3548 12.7012 18.3548H12.125C11.7779 18.3548 11.6572 18.456 11.6572 18.8048V19.3792C11.6572 19.728 11.7779 19.8372 12.125 19.8372ZM15.3162 19.8372H15.8923C16.2394 19.8372 16.3619 19.728 16.3619 19.3792V18.8048C16.3619 18.456 16.2394 18.3548 15.8923 18.3548H15.3162C14.9691 18.3548 14.8484 18.456 14.8484 18.8048V19.3792C14.8484 19.728 14.9691 19.8372 15.3162 19.8372Z" fill="white"/>
</svg>
