<svg width="24" height="24" viewBox="0 0 24 24" fill="none" xmlns="http://www.w3.org/2000/svg">
<path d="M4.81148 20.3235H19.1895C20.981 20.3235 21.8935 19.4246 21.8935 17.6469V9.45268C21.8935 7.67494 20.981 6.77611 19.1895 6.77611H4.81148C3.02537 6.77611 2.10596 7.67494 2.10596 9.45268V17.6469C2.10596 19.4246 3.02537 20.3235 4.81148 20.3235ZM7.6146 7.45915H9.1305V6.01373C9.1305 5.41222 9.48005 5.07639 10.0953 5.07639H13.9042C14.5194 5.07639 14.8621 5.41373 14.8621 6.01373V7.44543H16.3795V6.0139C16.3795 4.4312 15.5238 3.67651 13.9484 3.67651H10.0412C8.53603 3.67651 7.6146 4.4312 7.6146 6.0139V7.45915Z" fill="#464851"/>
</svg>
