<svg width="28" height="29" viewBox="0 0 28 29" fill="none" xmlns="http://www.w3.org/2000/svg">
<path d="M0 14.6187C0 6.88667 6.26801 0.618652 14 0.618652V0.618652C21.732 0.618652 28 6.88667 28 14.6187V14.6187C28 22.3506 21.732 28.6187 14 28.6187V28.6187C6.26801 28.6187 0 22.3506 0 14.6187V14.6187Z" fill="#14161C"/>
<path d="M8.43335 10.8492C8.56446 10.1145 9.16008 9.55153 9.90105 9.46205L11.0211 9.3268C13.1841 9.06561 15.3706 9.06561 17.5336 9.3268L18.6536 9.46205C19.3946 9.55153 19.9902 10.1145 20.1213 10.8492L20.41 12.4668L21.541 13.9898C22.0192 14.6337 22.2773 15.4144 22.2773 16.2164V17.6339C22.2773 18.3839 21.6693 18.9919 20.9193 18.9919H7.63543C6.88538 18.9919 6.27734 18.3839 6.27734 17.6339V16.2164C6.27734 15.4144 6.53553 14.6337 7.0137 13.9898L8.14472 12.4668L8.43335 10.8492Z" fill="white"/>
<rect x="6.27734" y="16.9968" width="3.43823" height="3.8627" rx="1.01857" fill="white"/>
<rect x="18.8398" y="16.9971" width="3.43823" height="3.8627" rx="1.01857" fill="white"/>
<circle cx="8.80168" cy="16.0422" r="1.03996" fill="#14161C"/>
<circle cx="19.7528" cy="16.0422" r="1.03996" fill="#14161C"/>
<rect x="12.4023" y="15.4268" width="3.75658" height="1.23097" rx="0.615485" fill="#14161C"/>
<path d="M9.22665 11.2937C9.31492 10.6995 9.78316 10.2338 10.3779 10.1488L10.4348 10.1407C12.983 9.77662 15.5701 9.77662 18.1184 10.1407L18.1753 10.1488C18.77 10.2338 19.2383 10.6995 19.3265 11.2937L19.5294 12.6593C19.5615 12.8756 19.3838 13.0655 19.1658 13.0476L16.492 12.8288C15.0175 12.7081 13.5357 12.7081 12.0612 12.8288L9.38733 13.0476C9.16939 13.0655 8.99167 12.8756 9.0238 12.6593L9.22665 11.2937Z" fill="#14161C"/>
</svg>
