<svg width="187" height="32" viewBox="0 0 187 32" fill="none" xmlns="http://www.w3.org/2000/svg">
<g clip-path="url(#clip0_10185_14660)">
<path fill-rule="evenodd" clip-rule="evenodd" d="M18.832 1.09111C16.9375 -0.365909 14.2991 -0.363472 12.4073 1.09705L2.43429 8.79651C1.14349 9.79306 0.387548 11.3317 0.387548 12.9624V25.237C0.387548 28.1436 2.74385 30.4999 5.65049 30.4999H21.5405C24.4472 30.4999 26.8035 28.1436 26.8035 25.237V18.7653C26.8035 17.1267 26.0402 15.5815 24.7388 14.5857L18.8194 10.0562C16.9307 8.61102 14.3076 8.61193 12.42 10.0584L7.5254 13.8092C7.17045 14.0812 7.10321 14.5894 7.3752 14.9443L8.85267 16.8724C9.12467 17.2273 9.6329 17.2946 9.98785 17.0226L14.8824 13.2719C15.318 12.938 15.9234 12.9378 16.3592 13.2713L22.2786 17.8008C22.5789 18.0306 22.755 18.3872 22.755 18.7653V25.237C22.755 25.9078 22.2113 26.4515 21.5405 26.4515H5.65049C4.97973 26.4515 4.43596 25.9078 4.43596 25.237V12.9624C4.43596 12.5861 4.61041 12.231 4.90829 12.001L14.8813 4.30158C15.3179 3.96454 15.9267 3.96397 16.3639 4.30021L27.0024 12.4821C27.3569 12.7547 27.8652 12.6884 28.1379 12.3339L29.6187 10.4084C29.8913 10.054 29.825 9.54563 29.4705 9.27302L18.832 1.09111Z" fill="white"/>
</g>
<path d="M51.1567 8.36409H47.3304V16.4882H51.1567C54.1513 16.4882 56.314 14.7968 56.2863 12.44C56.2863 10.0555 54.1513 8.36409 51.1567 8.36409ZM51.6835 19.2609H47.3304V25.25H44.114V5.61909H51.7113C56.314 5.61909 59.6135 8.475 59.6135 12.44C59.6135 16.405 56.314 19.2609 51.6835 19.2609ZM62.0886 11.1645H65V12.9668C65.8595 11.525 67.2182 10.6655 68.8264 10.6655C69.3809 10.6655 70.0186 10.8041 70.6286 11.0259V13.7155C69.8523 13.3827 68.9927 13.2718 68.4382 13.2718C66.4418 13.2718 65.1109 15.0464 65.1109 17.5418V25.25H62.0886V11.1645ZM78.6953 10.61C83.1871 10.61 86.3481 13.7432 86.3481 18.2073C86.3481 22.6714 83.1871 25.8045 78.6953 25.8045C74.1758 25.8045 71.0426 22.6714 71.0426 18.2073C71.0426 13.7432 74.1758 10.61 78.6953 10.61ZM78.6953 23.115C81.3849 23.115 83.3535 21.0632 83.3535 18.2073C83.3535 15.3514 81.3849 13.2995 78.6953 13.2995C75.9781 13.2995 74.0649 15.3514 74.0649 18.2073C74.0649 21.0632 75.9781 23.115 78.6953 23.115ZM96.371 22.9764C99.0606 22.9764 101.029 20.9523 101.029 18.2073C101.029 15.4068 99.0328 13.4382 96.371 13.4382C93.6815 13.4382 91.7406 15.4623 91.7406 18.2073C91.7406 20.9523 93.6815 22.9764 96.371 22.9764ZM104.024 18.2073C104.024 22.6159 101.057 25.8045 96.9533 25.8045C94.846 25.8045 93.0438 24.8895 91.8515 23.3368V31.6273H88.8292V11.1645H91.7683V13.1332C92.9883 11.5527 94.7906 10.61 96.9533 10.61C101.029 10.61 104.024 13.7986 104.024 18.2073ZM108.986 16.9041H117.748C117.415 14.6859 115.641 13.1332 113.312 13.1332C111.038 13.1332 109.374 14.6582 108.986 16.9041ZM105.853 18.0409C105.853 13.7155 109.014 10.61 113.395 10.61C117.776 10.61 120.881 13.7155 120.881 18.0686C120.881 18.4014 120.853 18.8173 120.826 19.15L108.958 19.1223C109.319 21.6177 111.066 23.2814 113.367 23.2814C115.252 23.2814 116.999 22.1723 117.526 20.6195L120.354 21.0355C119.55 23.8082 116.639 25.8045 113.422 25.8045C109.014 25.8045 105.853 22.5605 105.853 18.0409ZM123.368 11.1645H126.279V12.9668C127.139 11.525 128.498 10.6655 130.106 10.6655C130.66 10.6655 131.298 10.8041 131.908 11.0259V13.7155C131.132 13.3827 130.272 13.2718 129.718 13.2718C127.721 13.2718 126.39 15.0464 126.39 17.5418V25.25H123.368V11.1645ZM135.075 21.285V13.5214H132.912V11.1645H135.241L135.629 7.75409H138.097V11.1645H141.535V13.5214H138.097V21.0909C138.097 22.3664 138.873 23.2536 140.149 23.2536C140.537 23.2536 141.202 23.1705 141.729 23.0041V25.4164C141.008 25.6659 140.01 25.8045 139.234 25.8045C136.711 25.8045 135.075 23.9745 135.075 21.285ZM144.233 31.045V28.605C144.843 28.8268 145.536 28.9932 146.091 28.9932C148.031 28.9932 148.614 27.0523 149.335 25.3055L142.985 11.1645H146.285L150.693 21.5623L154.52 11.1645H157.681L152.163 25.5827C150.943 28.8268 149.695 31.5164 146.701 31.5164C145.896 31.5164 144.954 31.35 144.233 31.045ZM166.32 25.25L173.03 14.88L166.542 5.61909H170.48L175.609 13.05L180.85 5.61909H184.815L178.105 14.88L185.064 25.25H181.099L175.581 16.8209L170.23 25.25H166.32Z" fill="white"/>
<defs>
<clipPath id="clip0_10185_14660">
<rect width="30.5" height="30.5" fill="white"/>
</clipPath>
</defs>
</svg>
