<svg width="24" height="24" viewBox="0 0 24 24" fill="none" xmlns="http://www.w3.org/2000/svg">
<path d="M5.67101 20.9338C6.68903 20.9338 9.1421 19.8629 10.648 18.7904C10.8083 18.681 10.9346 18.6406 11.0683 18.6406C11.1741 18.6474 11.2739 18.6543 11.3677 18.6543C17.4118 18.6498 21.6902 15.3399 21.6902 10.8625C21.6902 6.54669 17.3825 3.06689 12.0006 3.06689C6.61721 3.06689 2.30957 6.54669 2.30957 10.8625C2.30957 13.5532 3.92994 15.958 6.67564 17.4384C6.82681 17.5219 6.87017 17.6475 6.79266 17.7942C6.30282 18.6019 5.48535 19.5137 5.15672 19.9412C4.78808 20.4065 5.00086 20.9338 5.67101 20.9338Z" fill="#464851"/>
</svg>
