<svg width="17" height="17" viewBox="0 0 17 17" fill="none" xmlns="http://www.w3.org/2000/svg">
<path d="M8.54883 0.0488281C3.9507 0.0488281 0.222656 3.77687 0.222656 8.375C0.222656 12.9731 3.9507 16.7012 8.54883 16.7012C13.147 16.7012 16.875 12.9731 16.875 8.375C16.875 3.77687 13.147 0.0488281 8.54883 0.0488281ZM9.24268 12.4389V13.9258H7.85498V12.443C6.37708 12.246 5.44664 11.3863 5.3946 10.1124H6.97726C7.05289 10.7466 7.69262 11.1532 8.61405 11.1532C9.4654 11.1532 10.067 10.741 10.067 10.1506C10.067 9.65168 9.67702 9.36443 8.71743 9.15835L7.69817 8.94187C6.27231 8.64352 5.57361 7.9011 5.57361 6.70838C5.57361 5.43864 6.45757 4.54635 7.85498 4.32224V2.82422H9.24268V4.32015C10.5998 4.5401 11.5157 5.41921 11.558 6.62165H10.0184C9.94277 6.00343 9.36757 5.59198 8.57658 5.59198C7.75784 5.59198 7.21595 5.97151 7.21595 6.56753C7.21595 7.04975 7.58993 7.3266 8.50581 7.52157L9.44875 7.72209C11.021 8.05305 11.6982 8.73025 11.6982 9.94448C11.6989 11.3197 10.7789 12.2286 9.24268 12.4389Z" fill="#A4A6B0"/>
</svg>
