<svg width="28" height="28" viewBox="0 0 28 28" fill="none" xmlns="http://www.w3.org/2000/svg">
<path d="M6.61699 24.4228C7.80468 24.4228 10.6666 23.1734 12.4234 21.9222C12.6105 21.7945 12.7578 21.7474 12.9138 21.7474C13.0373 21.7554 13.1537 21.7634 13.2631 21.7634C20.3146 21.7582 25.306 17.8966 25.306 12.673C25.306 7.63788 20.2804 3.57812 14.0015 3.57812C7.72089 3.57812 2.69531 7.63788 2.69531 12.673C2.69531 15.8121 4.58574 18.6177 7.78906 20.3449C7.96542 20.4423 8.01601 20.5888 7.92558 20.7599C7.3541 21.7023 6.40039 22.766 6.01699 23.2648C5.58691 23.8076 5.83515 24.4228 6.61699 24.4228Z" fill="#A4A6B0"/>
</svg>
