<svg width="89" height="25" viewBox="0 0 89 25" fill="none" xmlns="http://www.w3.org/2000/svg">
<path fill-rule="evenodd" clip-rule="evenodd" d="M75.7838 23.9147V5.01472H78.9696V7.28773H79.1576C79.3246 6.95364 79.5603 6.59867 79.8645 6.22281C80.1688 5.841 80.5804 5.51585 81.0995 5.24739C81.6185 4.97296 82.2807 4.83574 83.0861 4.83574C84.148 4.83574 85.1056 5.10719 85.9587 5.65009C86.8178 6.18702 87.4979 6.98347 87.999 8.03943C88.5061 9.08943 88.7597 10.3781 88.7597 11.9053C88.7597 13.4147 88.5121 14.6974 88.0169 15.7534C87.5218 16.8093 86.8476 17.6147 85.9945 18.1695C85.1414 18.7244 84.1749 19.0018 83.0951 19.0018C82.3076 19.0018 81.6543 18.8705 81.1353 18.608C80.6162 18.3455 80.1986 18.0294 79.8824 17.6595C79.5722 17.2836 79.3306 16.9286 79.1576 16.5945H79.0233V23.9147H75.7838ZM78.9607 11.8874C78.9607 12.7764 79.086 13.5549 79.3365 14.2231C79.5931 14.8913 79.96 15.4133 80.4372 15.7892C80.9205 16.159 81.5051 16.344 82.1912 16.344C82.9071 16.344 83.5067 16.1531 83.9899 15.7713C84.4732 15.3835 84.8371 14.8555 85.0817 14.1873C85.3323 13.5132 85.4575 12.7465 85.4575 11.8874C85.4575 11.0343 85.3353 10.2767 85.0907 9.61443C84.846 8.95222 84.4821 8.43318 83.9989 8.05733C83.5156 7.68148 82.9131 7.49355 82.1912 7.49355C81.4992 7.49355 80.9115 7.67551 80.4283 8.03943C79.9451 8.40335 79.5781 8.91344 79.3276 9.56969C79.083 10.2259 78.9607 10.9985 78.9607 11.8874Z" fill="#464851"/>
<path fill-rule="evenodd" clip-rule="evenodd" d="M60.0341 5.01472V23.9147H63.2736V16.5945H63.4079C63.5809 16.9286 63.8225 17.2836 64.1327 17.6595C64.4489 18.0294 64.8665 18.3455 65.3856 18.608C65.9046 18.8705 66.5579 19.0018 67.3454 19.0018C68.4252 19.0018 69.3917 18.7244 70.2448 18.1695C71.0979 17.6147 71.7721 16.8093 72.2672 15.7534C72.7624 14.6974 73.01 13.4147 73.01 11.9053C73.01 10.3781 72.7564 9.08943 72.2493 8.03943C71.7482 6.98347 71.0681 6.18702 70.209 5.65009C69.3559 5.10719 68.3983 4.83574 67.3364 4.83574C66.531 4.83574 65.8688 4.97296 65.3498 5.24739C64.8307 5.51585 64.4191 5.841 64.1148 6.22281C63.8106 6.59867 63.5749 6.95364 63.4079 7.28773H63.2199V5.01472H60.0341ZM63.5868 14.2231C63.3363 13.5549 63.211 12.7764 63.211 11.8874C63.211 10.9985 63.3333 10.2259 63.5779 9.56969C63.8285 8.91344 64.1954 8.40335 64.6786 8.03943C65.1618 7.67551 65.7495 7.49355 66.4415 7.49355C67.1634 7.49355 67.766 7.68148 68.2492 8.05733C68.7324 8.43318 69.0964 8.95222 69.341 9.61443C69.5856 10.2767 69.7079 11.0343 69.7079 11.8874C69.7079 12.7465 69.5826 13.5132 69.332 14.1873C69.0874 14.8555 68.7235 15.3835 68.2402 15.7713C67.757 16.1531 67.1574 16.344 66.4415 16.344C65.7555 16.344 65.1708 16.159 64.6876 15.7892C64.2103 15.4133 63.8434 14.8913 63.5868 14.2231Z" fill="#464851"/>
<path fill-rule="evenodd" clip-rule="evenodd" d="M44.2952 18.7603H40.7514L47.2036 0.432983H51.3021L57.7632 18.7603H54.2195L52.7011 14.2411H45.8108L44.2952 18.7603ZM51.805 11.5743L49.3244 4.19151H49.1813L46.7052 11.5743H51.805Z" fill="#464851"/>
<path d="M6.90403 20.6004L22.1736 20.6004C27.6465 20.6004 32.0831 16.1637 32.0831 10.6909C32.0831 5.74129 28.0707 1.72887 23.1211 1.72887H22.6473C20.5155 1.72887 18.5488 2.43584 16.9689 3.62813C15.7905 2.45439 14.1653 1.72887 12.3706 1.72887H12.1623C8.82605 1.72887 6.09473 4.31902 5.86956 7.59814C2.67587 7.90865 0.179688 10.6008 0.179688 13.8761C0.179688 17.5898 3.19028 20.6004 6.90403 20.6004Z" fill="#464851"/>
</svg>
