<svg width="21" height="30" viewBox="0 0 21 30" fill="none" xmlns="http://www.w3.org/2000/svg">
<path d="M15.1173 24.0349C15.1173 20.8711 17.2249 18.1576 19.1076 15.615C20.3002 14.0042 21 12.0433 21 9.92782C21 4.44483 16.299 0 10.5 0C4.70097 0 0 4.44483 0 9.92782C0 12.0434 0.699853 14.0044 1.89259 15.6151C3.77527 18.1577 5.88285 20.8712 5.88285 24.0349V24.0349H15.1173V24.0349Z" fill="#14161C"/>
<path d="M5.88281 25.8521H15.0967V25.8521C15.0967 28.1428 13.2398 29.9997 10.949 29.9997H10.0305C7.7398 29.9997 5.88281 28.1428 5.88281 25.8521V25.8521Z" fill="#14161C"/>
</svg>
