<svg width="19" height="20" viewBox="0 0 19 20" fill="none" xmlns="http://www.w3.org/2000/svg">
<path d="M2.50887 5.34328C2.6587 4.50358 3.33939 3.86025 4.1862 3.75799L5.46621 3.60342C7.93813 3.30493 10.437 3.30493 12.9089 3.60342L14.1889 3.75799C15.0357 3.86025 15.7164 4.50358 15.8663 5.34328L16.1961 7.19185L17.4887 8.9324C18.0351 9.66827 18.3302 10.5605 18.3302 11.4771V13.097C18.3302 13.9542 17.6353 14.649 16.7781 14.649H1.59699C0.739806 14.649 0.0449219 13.9542 0.0449219 13.097V11.4771C0.0449219 10.5605 0.339985 9.66827 0.886451 8.9324L2.17901 7.19185L2.50887 5.34328Z" fill="#A4A6B0"/>
<rect x="0.0449219" y="12.3691" width="3.92931" height="4.41441" rx="1.16405" fill="#A4A6B0"/>
<rect x="14.4004" y="12.3694" width="3.92931" height="4.41441" rx="1.16405" fill="#A4A6B0"/>
<circle cx="2.92873" cy="11.2781" r="1.18849" fill="#FAFAFB"/>
<circle cx="15.4444" cy="11.2781" r="1.18849" fill="#FAFAFB"/>
<rect x="7.04297" y="10.575" width="4.29313" height="1.40679" rx="0.703395" fill="#FAFAFB"/>
<path d="M3.41694 5.85126C3.51783 5.17212 4.05294 4.63996 4.73264 4.54285L4.79764 4.53356C7.70987 4.11747 10.6665 4.11747 13.5787 4.53356L13.6437 4.54285C14.3234 4.63996 14.8585 5.17212 14.9594 5.85126L15.1912 7.41193C15.2279 7.65912 15.0248 7.87605 14.7758 7.85567L11.72 7.6056C10.0349 7.46769 8.3414 7.46769 6.65632 7.6056L3.60057 7.85567C3.35151 7.87605 3.1484 7.65912 3.18512 7.41193L3.41694 5.85126Z" fill="#FAFAFB"/>
</svg>
