<svg width="28" height="29" viewBox="0 0 28 29" fill="none" xmlns="http://www.w3.org/2000/svg">
<path d="M0 14.4419C0 6.70991 6.26801 0.441895 14 0.441895V0.441895C21.732 0.441895 28 6.70991 28 14.4419V14.4419C28 22.1739 21.732 28.4419 14 28.4419V28.4419C6.26801 28.4419 0 22.1739 0 14.4419V14.4419Z" fill="#14161C"/>
<path d="M16.2773 11.3882V8.39136C16.2773 7.83907 15.8296 7.39136 15.2773 7.39136H13.2773C12.7251 7.39136 12.2773 7.83907 12.2773 8.39136V11.3882L6.66734 16.9938C6.54356 17.1176 6.44541 17.2646 6.3785 17.4263C6.31158 17.5881 6.27721 17.7614 6.27734 17.9364V19.3819C6.27734 19.5586 6.34758 19.728 6.47261 19.853C6.59763 19.9779 6.7672 20.0481 6.94401 20.0481H21.6107C21.7875 20.0481 21.9571 19.9779 22.0821 19.853C22.2071 19.728 22.2773 19.5586 22.2773 19.3819V17.9364C22.2775 17.7614 22.2431 17.5881 22.1762 17.4263C22.1093 17.2646 22.0111 17.1176 21.8873 16.9938L16.2773 11.3882Z" fill="white"/>
</svg>
