<svg width="28" height="28" viewBox="0 0 28 28" fill="none" xmlns="http://www.w3.org/2000/svg">
<path d="M8.33203 19.0912V9.17495C8.33203 8.9861 8.48512 8.83301 8.67397 8.83301H18.5902" stroke="white" stroke-width="0.820652"/>
<path d="M18.5938 19.0097V16.8115" stroke="white" stroke-width="0.820652" stroke-linecap="round" stroke-linejoin="round"/>
<path d="M18.5938 11.1123V12.2521" stroke="white" stroke-width="0.820652" stroke-linecap="round" stroke-linejoin="round"/>
<path d="M18.5938 13.9619V15.1017" stroke="white" stroke-width="0.820652" stroke-linecap="round" stroke-linejoin="round"/>
<path d="M10.6172 19.0908H11.757" stroke="white" stroke-width="1.02582" stroke-linecap="round" stroke-linejoin="round"/>
<path d="M13.4648 19.0908H14.6046" stroke="white" stroke-width="1.02582" stroke-linecap="round" stroke-linejoin="round"/>
<path d="M18.5933 9.40249C18.9081 9.40249 19.1632 9.14734 19.1632 8.83259C19.1632 8.51785 18.9081 8.2627 18.5933 8.2627C18.2786 8.2627 18.0234 8.51785 18.0234 8.83259C18.0234 9.14734 18.2786 9.40249 18.5933 9.40249Z" fill="white" stroke="white" stroke-width="1.02582" stroke-linecap="round" stroke-linejoin="round"/>
<path d="M8.46307 19.5986H18.483C18.9439 19.5986 19.1717 19.0386 18.8417 18.7168L8.82179 8.94744C8.49625 8.63003 7.94922 8.86069 7.94922 9.31535V19.0848C7.94922 19.3685 8.17928 19.5986 8.46307 19.5986Z" fill="white"/>
</svg>
