<svg width="28" height="28" viewBox="0 0 28 28" fill="none" xmlns="http://www.w3.org/2000/svg">
<path d="M0 14C0 6.26801 6.26801 0 14 0V0C21.732 0 28 6.26801 28 14V14C28 21.732 21.732 28 14 28V28C6.26801 28 0 21.732 0 14V14Z" fill="#14161C"/>
<path fill-rule="evenodd" clip-rule="evenodd" d="M14.9711 14.9447V17.8606C15.5601 16.6664 16.3991 15.9007 17.1972 15.4609C17.1673 15.3107 17.1517 15.1554 17.1517 14.9965C17.1517 14.9671 17.1522 14.9378 17.1533 14.9087C16.8317 14.8305 16.5297 14.7023 16.2559 14.5327C15.8586 14.7329 15.4265 14.874 14.9711 14.9447ZM19.5206 17.3654C18.8279 17.3654 18.2047 17.0681 17.7715 16.5942C16.7672 17.1644 15.5196 18.5341 15.4576 21.394V22.0242C15.4576 22.1643 15.344 22.2779 15.2039 22.2779H13.4284C13.2883 22.2779 13.1747 22.1643 13.1747 22.0242V21.4143C13.1166 18.5301 11.827 17.1538 10.7914 16.5862C10.358 17.0648 9.73159 17.3654 9.035 17.3654C7.72664 17.3654 6.66602 16.3048 6.66602 14.9965C6.66602 14.1564 7.10327 13.4185 7.76259 12.9978C7.63112 12.6536 7.55911 12.28 7.55911 11.8896C7.55911 10.2827 8.77897 8.96079 10.3432 8.7993C11.0365 7.31012 12.5463 6.27783 14.2973 6.27783C16.05 6.27783 17.5611 7.31221 18.2535 8.80381C19.7979 8.98394 20.9966 10.2968 20.9966 11.8896C20.9966 12.28 20.9245 12.6536 20.7931 12.9979C21.4524 13.4185 21.8896 14.1564 21.8896 14.9965C21.8896 16.3048 20.829 17.3654 19.5206 17.3654ZM13.7025 17.9757V14.9562C13.2097 14.889 12.7432 14.7394 12.3172 14.5218C12.0388 14.6968 11.7308 14.8288 11.4024 14.9087C11.4034 14.9378 11.404 14.9671 11.404 14.9965C11.404 15.152 11.389 15.3041 11.3604 15.4512C12.2031 15.9027 13.0955 16.7053 13.7025 17.9757Z" fill="white"/>
</svg>
