<svg width="21" height="21" viewBox="0 0 21 21" fill="none" xmlns="http://www.w3.org/2000/svg">
<g clip-path="url(#clip0_10005_12307)">
<path d="M4.25 16.3584V4.27507C4.25 4.04495 4.43655 3.8584 4.66667 3.8584H16.75" stroke="#A4A6B0" stroke-width="1.00625"/>
<path d="M16.7539 16.2592V13.5806" stroke="#A4A6B0" stroke-width="1.00625" stroke-linecap="round" stroke-linejoin="round"/>
<path d="M16.75 6.63623V8.02512" stroke="#A4A6B0" stroke-width="1.00625" stroke-linecap="round" stroke-linejoin="round"/>
<path d="M16.75 10.1084V11.4973" stroke="#A4A6B0" stroke-width="1.00625" stroke-linecap="round" stroke-linejoin="round"/>
<path d="M7.0293 16.3584H8.41819" stroke="#A4A6B0" stroke-width="1.25781" stroke-linecap="round" stroke-linejoin="round"/>
<path d="M10.5 16.3584H11.8889" stroke="#A4A6B0" stroke-width="1.25781" stroke-linecap="round" stroke-linejoin="round"/>
<path d="M16.7511 4.55271C17.1346 4.55271 17.4455 4.24179 17.4455 3.85826C17.4455 3.47473 17.1346 3.16382 16.7511 3.16382C16.3675 3.16382 16.0566 3.47473 16.0566 3.85826C16.0566 4.24179 16.3675 4.55271 16.7511 4.55271Z" fill="#A4A6B0" stroke="#A4A6B0" stroke-width="1.25781" stroke-linecap="round" stroke-linejoin="round"/>
<path d="M3.8996 17.1601H16.1856C16.7508 17.1601 17.0301 16.4734 16.6255 16.0789L4.33944 4.10005C3.94028 3.71086 3.26953 3.99368 3.26953 4.55117V16.53C3.26953 16.878 3.55162 17.1601 3.8996 17.1601Z" fill="#A4A6B0"/>
</g>
<defs>
<clipPath id="clip0_10005_12307">
<rect width="20" height="20" fill="white" transform="translate(0.5 0.108398)"/>
</clipPath>
</defs>
</svg>
