<svg width="138" height="29" viewBox="0 0 138 29" fill="none" xmlns="http://www.w3.org/2000/svg">
<path d="M0.261719 14.0465C0.261719 8.49974 3.48745 3.70638 8.16533 1.44002V14.109C8.19887 17.4478 10.9162 20.1441 14.2629 20.1443L26.8675 20.1443C24.6009 24.8214 19.8079 28.0465 14.2617 28.0465C6.52973 28.0465 0.261719 21.7785 0.261719 14.0465Z" fill="#464851"/>
<path d="M28.2617 14.0465C28.2617 14.8412 28.1955 15.6205 28.0683 16.379H19.899C20.1967 15.6605 20.361 14.8726 20.361 14.0464C20.361 10.6787 17.6309 7.9486 14.2632 7.9486C13.437 7.9486 12.6492 8.11291 11.9306 8.41063V0.239703C12.6887 0.112642 13.4675 0.0465088 14.2617 0.0465088C21.9937 0.0465088 28.2617 6.31452 28.2617 14.0465Z" fill="#464851"/>
<path d="M84.0791 22.8409V9.09549H87.3185V22.8409H84.0791Z" fill="#464851"/>
<path d="M85.7078 7.14463C85.1947 7.14463 84.7532 6.9746 84.3833 6.63455C84.0134 6.28852 83.8285 5.87389 83.8285 5.39065C83.8285 4.90145 84.0134 4.48682 84.3833 4.14676C84.7532 3.80074 85.1947 3.62773 85.7078 3.62773C86.2268 3.62773 86.6683 3.80074 87.0322 4.14676C87.4021 4.48682 87.587 4.90145 87.587 5.39065C87.587 5.87389 87.4021 6.28852 87.0322 6.63455C86.6683 6.9746 86.2268 7.14463 85.7078 7.14463Z" fill="#464851"/>
<path d="M97.5142 11.6012V9.09554H94.8027V5.80236H91.5632V9.09554H89.6124V11.6012H91.5632V19.2436C91.5572 20.1026 91.7422 20.8186 92.118 21.3913C92.4999 21.964 93.0159 22.3876 93.6662 22.662C94.3165 22.9305 95.0473 23.0528 95.8587 23.0289C96.318 23.017 96.7058 22.9752 97.022 22.9036C97.3442 22.8321 97.5918 22.7664 97.7648 22.7068L97.2189 20.1742C97.1294 20.1981 96.9982 20.225 96.8251 20.2548C96.6581 20.2846 96.4732 20.2995 96.2703 20.2995C96.0018 20.2995 95.7572 20.2578 95.5365 20.1742C95.3158 20.0907 95.1368 19.9356 94.9996 19.7089C94.8683 19.4762 94.8027 19.1421 94.8027 18.7066V11.6012H97.5142Z" fill="#464851"/>
<path d="M122.418 11.6012V9.09554H119.706V5.80236H116.467V9.09554H114.516V11.6012H116.467V19.2436C116.461 20.1026 116.646 20.8186 117.022 21.3913C117.403 21.964 117.919 22.3876 118.57 22.662C119.22 22.9305 119.951 23.0528 120.762 23.0289C121.222 23.017 121.609 22.9752 121.926 22.9036C122.248 22.8321 122.495 22.7664 122.668 22.7068L122.122 20.1742C122.033 20.1981 121.902 20.225 121.729 20.2548C121.562 20.2846 121.377 20.2995 121.174 20.2995C120.905 20.2995 120.661 20.2578 120.44 20.1742C120.219 20.0907 120.04 19.9356 119.903 19.7089C119.772 19.4762 119.706 19.1421 119.706 18.7066V11.6012H122.418Z" fill="#464851"/>
<path fill-rule="evenodd" clip-rule="evenodd" d="M127.496 22.2503C128.498 22.823 129.689 23.1094 131.067 23.1094C132.135 23.1094 133.083 22.9483 133.912 22.6261C134.742 22.298 135.422 21.8386 135.953 21.248C136.49 20.6514 136.854 19.9534 137.045 19.154L134.02 18.8139C133.877 19.2017 133.665 19.5269 133.384 19.7894C133.104 20.0519 132.773 20.2517 132.391 20.3889C132.009 20.5202 131.583 20.5858 131.111 20.5858C130.407 20.5858 129.793 20.4367 129.268 20.1384C128.743 19.8341 128.334 19.3986 128.042 18.8318C127.76 18.2784 127.614 17.6192 127.604 16.8541H137.179V15.8608C137.179 14.6557 137.012 13.6176 136.678 12.7466C136.344 11.8696 135.884 11.1477 135.299 10.581C134.721 10.0142 134.053 9.5966 133.295 9.32813C132.543 9.0537 131.744 8.91648 130.897 8.91648C129.584 8.91648 128.442 9.21776 127.469 9.82032C126.497 10.4169 125.739 11.2521 125.196 12.326C124.659 13.3939 124.391 14.6348 124.391 16.0487C124.391 17.4865 124.659 18.7364 125.196 19.7983C125.733 20.8543 126.5 21.6716 127.496 22.2503ZM127.61 14.6706C127.641 14.1321 127.779 13.6339 128.024 13.1761C128.304 12.6571 128.695 12.2395 129.196 11.9233C129.698 11.6011 130.279 11.4401 130.941 11.4401C131.562 11.4401 132.105 11.5803 132.57 11.8607C133.041 12.1411 133.408 12.5259 133.671 13.0151C133.933 13.4983 134.068 14.0501 134.074 14.6706H127.61Z" fill="#464851"/>
<path d="M108.985 17.0601V9.09556H112.224V22.841H109.083V20.398H108.94C108.63 21.1676 108.12 21.797 107.41 22.2862C106.706 22.7754 105.838 23.02 104.806 23.02C103.905 23.02 103.108 22.8201 102.416 22.4204C101.73 22.0147 101.193 21.4271 100.806 20.6575C100.418 19.8819 100.224 18.9453 100.224 17.8476V9.09556H103.463V17.3464C103.463 18.2174 103.702 18.9095 104.179 19.4226C104.657 19.9356 105.283 20.1922 106.059 20.1922C106.536 20.1922 106.998 20.0758 107.446 19.8432C107.893 19.6105 108.26 19.2645 108.546 18.8051C108.839 18.3397 108.985 17.7581 108.985 17.0601Z" fill="#464851"/>
<path d="M81.3695 11.6012V9.09554H78.658V5.80236H75.4185V9.09554H73.4677V11.6012H75.4185V19.2436C75.4126 20.1026 75.5975 20.8186 75.9734 21.3913C76.3552 21.964 76.8712 22.3876 77.5215 22.662C78.1718 22.9305 78.9026 23.0528 79.714 23.0289C80.1734 23.017 80.5611 22.9752 80.8773 22.9036C81.1995 22.8321 81.4471 22.7664 81.6201 22.7068L81.0742 20.1742C80.9847 20.1981 80.8535 20.225 80.6805 20.2548C80.5134 20.2846 80.3285 20.2995 80.1256 20.2995C79.8572 20.2995 79.6126 20.2578 79.3918 20.1742C79.1711 20.0907 78.9921 19.9356 78.8549 19.7089C78.7236 19.4762 78.658 19.1421 78.658 18.7066V11.6012H81.3695Z" fill="#464851"/>
<path d="M71.5416 12.7287L68.5885 13.0509C68.5049 12.7526 68.3588 12.4722 68.15 12.2097C67.9471 11.9472 67.6727 11.7354 67.3267 11.5743C66.9807 11.4132 66.5571 11.3327 66.0559 11.3327C65.3818 11.3327 64.815 11.4788 64.3557 11.7712C63.9022 12.0635 63.6785 12.4423 63.6845 12.9077C63.6785 13.3074 63.8247 13.6325 64.123 13.8831C64.4273 14.1337 64.9284 14.3395 65.6264 14.5006L67.971 15.0017C69.2716 15.2821 70.238 15.7266 70.8704 16.3351C71.5088 16.9436 71.831 17.7401 71.8369 18.7244C71.831 19.5895 71.5774 20.3531 71.0763 21.0154C70.5811 21.6716 69.892 22.1847 69.0091 22.5546C68.1261 22.9244 67.1119 23.1094 65.9665 23.1094C64.2841 23.1094 62.9298 22.7574 61.9037 22.0534C60.8775 21.3435 60.266 20.3561 60.0692 19.0913L63.2281 18.7871C63.3713 19.4075 63.6755 19.8759 64.1409 20.1921C64.6062 20.5082 65.2118 20.6663 65.9575 20.6663C66.7271 20.6663 67.3446 20.5082 67.8099 20.1921C68.2812 19.8759 68.5169 19.4851 68.5169 19.0198C68.5169 18.626 68.3648 18.3009 68.0605 18.0443C67.7622 17.7878 67.2969 17.5909 66.6645 17.4537L64.3199 16.9615C63.0014 16.6871 62.026 16.2247 61.3936 15.5744C60.7612 14.9182 60.448 14.0889 60.454 13.0867C60.448 12.2395 60.6777 11.5057 61.143 10.8852C61.6143 10.2588 62.2676 9.77558 63.1028 9.43552C63.944 9.0895 64.9135 8.91648 66.0112 8.91648C67.622 8.91648 68.8897 9.25952 69.8145 9.9456C70.7452 10.6317 71.3209 11.5594 71.5416 12.7287Z" fill="#464851"/>
<path d="M48.559 22.8409V14.7869C48.559 14.1247 48.6813 13.5609 48.9259 13.0956C49.1765 12.6303 49.5195 12.2753 49.955 12.0307C50.3965 11.7801 50.9006 11.6548 51.4674 11.6548C52.3026 11.6548 52.9559 11.9144 53.4272 12.4334C53.9044 12.9524 54.1431 13.6713 54.1431 14.5901V22.8409H57.3826V14.0889C57.3885 12.9912 57.1946 12.0575 56.8009 11.2879C56.4131 10.5183 55.8642 9.93069 55.1543 9.52501C54.4503 9.11933 53.624 8.91648 52.6755 8.91648C51.6493 8.91648 50.7873 9.14319 50.0892 9.5966C49.3972 10.05 48.8931 10.6615 48.5769 11.4311H48.4158V9.09546H45.3195V22.8409H48.559Z" fill="#464851"/>
<path d="M41.8682 4.51373V22.841H38.5481V4.51373H41.8682Z" fill="#464851"/>
</svg>
