<svg width="80" height="80" viewBox="0 0 80 80" fill="none" xmlns="http://www.w3.org/2000/svg">
<path fill-rule="evenodd" clip-rule="evenodd" d="M48.9352 2.86193C43.9661 -0.959761 37.0457 -0.95337 32.0836 2.87751L5.92489 23.0728C2.53916 25.6867 0.556379 29.7224 0.556379 33.9997V66.1954C0.556379 73.8194 6.73683 79.9999 14.3608 79.9999H56.0396C63.6636 79.9999 69.844 73.8194 69.844 66.1954V49.2206C69.844 44.9224 67.8419 40.8695 64.4285 38.2575L48.9022 26.3769C43.9484 22.5863 37.068 22.5887 32.1168 26.3828L19.2786 36.2208C18.3476 36.9342 18.1712 38.2673 18.8847 39.1983L22.76 44.2554C23.4734 45.1864 24.8065 45.3628 25.7375 44.6494L38.5757 34.8114C39.7183 33.9359 41.306 33.9353 42.4492 34.8101L57.9755 46.6906C58.7632 47.2934 59.2252 48.2287 59.2252 49.2206V66.1954C59.2252 67.9548 57.799 69.381 56.0396 69.381H14.3608C12.6014 69.381 11.1752 67.9548 11.1752 66.1954V33.9997C11.1752 33.0127 11.6327 32.0814 12.4141 31.4781L38.5728 11.2828C39.7179 10.3988 41.3149 10.3973 42.4616 11.2792L70.3659 32.74C71.2956 33.455 72.629 33.281 73.3441 32.3512L77.2282 27.3009C77.9433 26.3711 77.7692 25.0377 76.8395 24.3227L48.9352 2.86193Z" fill="white"/>
</svg>
