<svg width="162" height="28" viewBox="0 0 162 28" fill="none" xmlns="http://www.w3.org/2000/svg">
<path d="M0 18.7409C0 19.4303 0.698219 19.9001 1.33683 19.6405L9.87011 16.1717C10.2361 16.0229 10.4755 15.6672 10.4755 15.2721V11.3549C10.4755 10.9598 10.7149 10.6041 11.081 10.4553L19.6452 6.97391C20.0112 6.82512 20.2506 6.46939 20.2506 6.07428V1.48174C20.2506 0.945408 19.8158 0.51062 19.2795 0.51062H10.7462C10.2099 0.51062 9.77509 0.945407 9.77509 1.48174L9.77509 8.73731C9.77509 9.27365 9.34031 9.70843 8.80397 9.70843L0.971124 9.70843C0.434788 9.70843 0 10.1432 0 10.6796V18.7409Z" fill="#464851"/>
<path d="M27.6607 7.15649C27.6607 6.46713 26.9625 5.99726 26.3239 6.25686L17.7906 9.72567C17.4246 9.87446 17.1852 10.2302 17.1852 10.6253V14.5424C17.1852 14.9375 16.9458 15.2932 16.5798 15.442L8.01553 18.9234C7.6495 19.0722 7.41011 19.428 7.41011 19.8231V24.4156C7.41011 24.9519 7.8449 25.3867 8.38123 25.3867H16.9145C17.4509 25.3867 17.8856 24.9519 17.8856 24.4156V17.1601C17.8856 16.6237 18.3204 16.189 18.8568 16.189H26.6896C27.2259 16.189 27.6607 15.7542 27.6607 15.2178V7.15649Z" fill="#464851"/>
<path d="M128.656 8.68242V22.4279H131.895V8.68242H128.656Z" fill="#464851"/>
<path d="M128.96 6.22148C129.33 6.56153 129.771 6.73156 130.284 6.73156C130.803 6.73156 131.245 6.56153 131.609 6.22148C131.979 5.87545 132.164 5.46082 132.164 4.97758C132.164 4.48838 131.979 4.07375 131.609 3.73369C131.245 3.38767 130.803 3.21466 130.284 3.21466C129.771 3.21466 129.33 3.38767 128.96 3.73369C128.59 4.07375 128.405 4.48838 128.405 4.97758C128.405 5.46082 128.59 5.87545 128.96 6.22148Z" fill="#464851"/>
<path d="M146.091 12.3156L143.138 12.6378C143.054 12.3395 142.908 12.0591 142.699 11.7966C142.496 11.5341 142.222 11.3223 141.876 11.1612C141.53 11.0001 141.106 10.9196 140.605 10.9196C139.931 10.9196 139.364 11.0658 138.905 11.3581C138.452 11.6504 138.228 12.0293 138.234 12.4946C138.228 12.8943 138.374 13.2195 138.672 13.47C138.977 13.7206 139.478 13.9264 140.176 14.0875L142.52 14.5886C143.821 14.869 144.787 15.3135 145.42 15.922C146.058 16.5305 146.38 17.327 146.386 18.3114C146.38 19.1764 146.127 19.9401 145.626 20.6023C145.13 21.2585 144.441 21.7716 143.558 22.1415C142.675 22.5114 141.661 22.6963 140.516 22.6963C138.833 22.6963 137.479 22.3443 136.453 21.6403C135.427 20.9304 134.815 19.943 134.618 18.6783L137.777 18.374C137.921 18.9945 138.225 19.4628 138.69 19.779C139.156 20.0952 139.761 20.2533 140.507 20.2533C141.276 20.2533 141.894 20.0952 142.359 19.779C142.831 19.4628 143.066 19.072 143.066 18.6067C143.066 18.2129 142.914 17.8878 142.61 17.6313C142.311 17.3747 141.846 17.1778 141.214 17.0406L138.869 16.5484C137.551 16.274 136.575 15.8117 135.943 15.1614C135.31 14.5051 134.997 13.6759 135.003 12.6736C134.997 11.8264 135.227 11.0926 135.692 10.4722C136.164 9.84574 136.817 9.36251 137.652 9.02245C138.493 8.67643 139.463 8.50341 140.56 8.50341C142.171 8.50341 143.439 8.84645 144.364 9.53253C145.294 10.2186 145.87 11.1463 146.091 12.3156Z" fill="#464851"/>
<path fill-rule="evenodd" clip-rule="evenodd" d="M155.141 22.6963C153.763 22.6963 152.573 22.4099 151.571 21.8372C150.574 21.2585 149.808 20.4412 149.271 19.3852C148.734 18.3233 148.465 17.0734 148.465 15.6357C148.465 14.2217 148.734 12.9808 149.271 11.9129C149.814 10.8391 150.571 10.0038 151.544 9.40725C152.516 8.80469 153.659 8.50341 154.971 8.50341C155.818 8.50341 156.618 8.64063 157.369 8.91506C158.127 9.18353 158.795 9.60114 159.374 10.1679C159.959 10.7347 160.418 11.4565 160.752 12.3335C161.086 13.2046 161.253 14.2426 161.253 15.4477V16.4411H151.678C151.688 17.2061 151.834 17.8654 152.116 18.4188C152.409 18.9855 152.817 19.421 153.342 19.7253C153.867 20.0236 154.482 20.1727 155.186 20.1727C155.657 20.1727 156.084 20.1071 156.466 19.9759C156.847 19.8386 157.178 19.6388 157.459 19.3763C157.739 19.1138 157.951 18.7886 158.094 18.4009L161.119 18.7409C160.928 19.5403 160.564 20.2384 160.027 20.835C159.496 21.4256 158.816 21.8849 157.987 22.2131C157.158 22.5352 156.209 22.6963 155.141 22.6963ZM152.098 12.7631C151.854 13.2209 151.716 13.719 151.685 14.2575H158.148C158.142 13.6371 158.008 13.0852 157.745 12.602C157.483 12.1128 157.116 11.728 156.645 11.4476C156.179 11.1672 155.636 11.027 155.016 11.027C154.354 11.027 153.772 11.1881 153.271 11.5102C152.77 11.8264 152.379 12.244 152.098 12.7631Z" fill="#464851"/>
<path d="M118.665 22.4279V8.68246H121.806V10.9734H121.949C122.2 10.1799 122.629 9.5684 123.238 9.13885C123.852 8.70334 124.553 8.48558 125.341 8.48558C125.52 8.48558 125.72 8.49453 125.94 8.51243C126.167 8.52436 126.355 8.54524 126.504 8.57507V11.555C126.367 11.5073 126.149 11.4656 125.851 11.4298C125.559 11.388 125.275 11.3671 125.001 11.3671C124.41 11.3671 123.879 11.4954 123.408 11.7519C122.943 12.0025 122.576 12.3515 122.307 12.7989C122.039 13.2464 121.904 13.7624 121.904 14.3471V22.4279H118.665Z" fill="#464851"/>
<path fill-rule="evenodd" clip-rule="evenodd" d="M102.912 8.68239V27.5824H106.152V20.2622H106.286C106.459 20.5963 106.701 20.9513 107.011 21.3271C107.327 21.697 107.745 22.0132 108.264 22.2757C108.783 22.5382 109.436 22.6695 110.223 22.6695C111.303 22.6695 112.27 22.3921 113.123 21.8372C113.976 21.2824 114.65 20.477 115.145 19.421C115.64 18.3651 115.888 17.0824 115.888 15.573C115.888 14.0457 115.634 12.7571 115.127 11.7071C114.626 10.6511 113.946 9.85469 113.087 9.31776C112.234 8.77486 111.276 8.50341 110.214 8.50341C109.409 8.50341 108.747 8.64063 108.228 8.91506C107.709 9.18353 107.297 9.50867 106.993 9.89049C106.689 10.2663 106.453 10.6213 106.286 10.9554H106.098V8.68239H102.912ZM106.465 17.8908C106.214 17.2226 106.089 16.444 106.089 15.5551C106.089 14.6662 106.211 13.8936 106.456 13.2374C106.706 12.5811 107.073 12.071 107.557 11.7071C108.04 11.3432 108.628 11.1612 109.32 11.1612C110.041 11.1612 110.644 11.3492 111.127 11.725C111.61 12.1009 111.974 12.6199 112.219 13.2821C112.464 13.9443 112.586 14.702 112.586 15.5551C112.586 16.4142 112.461 17.1808 112.21 17.855C111.965 18.5232 111.602 19.0511 111.118 19.4389C110.635 19.8207 110.035 20.0117 109.32 20.0117C108.633 20.0117 108.049 19.8267 107.566 19.4568C107.088 19.081 106.721 18.559 106.465 17.8908Z" fill="#464851"/>
<path d="M92.9213 22.4279V8.68246H96.0623V10.9734H96.2055C96.4561 10.1799 96.8856 9.5684 97.4941 9.13885C98.1086 8.70334 98.8096 8.48558 99.5971 8.48558C99.7761 8.48558 99.976 8.49453 100.197 8.51243C100.423 8.52436 100.611 8.54524 100.76 8.57507V11.555C100.623 11.5073 100.406 11.4656 100.107 11.4298C99.8149 11.388 99.5315 11.3671 99.2571 11.3671C98.6664 11.3671 98.1355 11.4954 97.6642 11.7519C97.1988 12.0025 96.8319 12.3515 96.5635 12.7989C96.295 13.2464 96.1608 13.7624 96.1608 14.3471V22.4279H92.9213Z" fill="#464851"/>
<path fill-rule="evenodd" clip-rule="evenodd" d="M80.4994 21.8372C81.5017 22.4099 82.6919 22.6963 84.07 22.6963C85.1379 22.6963 86.0865 22.5352 86.9158 22.2131C87.745 21.8849 88.4251 21.4256 88.9561 20.835C89.493 20.2384 89.8569 19.5403 90.0479 18.7409L87.0231 18.4009C86.88 18.7886 86.6682 19.1138 86.3878 19.3763C86.1074 19.6388 85.7763 19.8386 85.3945 19.9759C85.0126 20.1071 84.5861 20.1727 84.1148 20.1727C83.4108 20.1727 82.7963 20.0236 82.2713 19.7253C81.7463 19.421 81.3376 18.9855 81.0453 18.4188C80.7628 17.8654 80.6168 17.2061 80.6073 16.4411H90.1821V15.4477C90.1821 14.2426 90.015 13.2046 89.6809 12.3335C89.3469 11.4565 88.8875 10.7347 88.3028 10.1679C87.7241 9.60114 87.056 9.18353 86.2983 8.91506C85.5466 8.64063 84.7471 8.50341 83.9 8.50341C82.5875 8.50341 81.445 8.80469 80.4726 9.40725C79.5001 10.0038 78.7425 10.8391 78.1996 11.9129C77.6626 12.9808 77.3942 14.2217 77.3942 15.6357C77.3942 17.0734 77.6626 18.3233 78.1996 19.3852C78.7365 20.4412 79.5031 21.2585 80.4994 21.8372ZM87.0768 14.2575H80.6134C80.6445 13.719 80.7825 13.2209 81.0274 12.7631C81.3078 12.244 81.6986 11.8264 82.1997 11.5102C82.7008 11.1881 83.2825 11.027 83.9447 11.027C84.5652 11.027 85.1081 11.1672 85.5734 11.4476C86.0447 11.728 86.4116 12.1128 86.6741 12.602C86.9366 13.0852 87.0709 13.6371 87.0768 14.2575Z" fill="#464851"/>
<path d="M75.4211 8.68247V11.1882H72.7096V18.2936C72.7096 18.7291 72.7752 19.0632 72.9065 19.2958C73.0437 19.5225 73.2227 19.6776 73.4434 19.7612C73.6641 19.8447 73.9087 19.8865 74.1772 19.8865C74.3801 19.8865 74.565 19.8715 74.732 19.8417C74.9051 19.8119 75.0363 19.785 75.1258 19.7612L75.6717 22.2937C75.4987 22.3534 75.2511 22.419 74.9289 22.4906C74.6127 22.5622 74.2249 22.6039 73.7656 22.6159C72.9542 22.6397 72.2234 22.5174 71.5731 22.249C70.9228 21.9745 70.4068 21.5509 70.0249 20.9782C69.6491 20.4055 69.4641 19.6896 69.4701 18.8305V11.1882H67.5193V8.68247H69.4701V5.38929H72.7096V8.68247H75.4211Z" fill="#464851"/>
<path d="M56.4417 22.4278V14.3739C56.4417 13.7117 56.564 13.1479 56.8086 12.6825C57.0592 12.2172 57.4022 11.8622 57.8377 11.6176C58.2792 11.3671 58.7833 11.2418 59.3501 11.2418C60.1853 11.2418 60.8386 11.5013 61.3099 12.0203C61.7872 12.5394 62.0258 13.2582 62.0258 14.177V22.4278H65.2653V13.6759C65.2713 12.5781 65.0774 11.6445 64.6836 10.8749C64.2958 10.1053 63.747 9.51762 63.037 9.11194C62.333 8.70626 61.5068 8.50341 60.5582 8.50341C59.5321 8.50341 58.67 8.73012 57.972 9.18353C57.2799 9.63694 56.7758 10.2484 56.4596 11.018H56.2985V8.68239H53.2022V22.4278H56.4417Z" fill="#464851"/>
<path d="M38.0388 22.4279V4.10066H49.9586V6.88376H41.3588V11.8593H49.3412V14.6424H41.3588V19.6448H50.0302V22.4279H38.0388Z" fill="#464851"/>
</svg>
