<svg width="14" height="14" viewBox="0 0 14 14" fill="none" xmlns="http://www.w3.org/2000/svg">
<path d="M13.8411 13.0834L10.4779 9.72017C11.4546 8.54878 11.9421 7.04593 11.8389 5.52426C11.7358 4.00259 11.05 2.57926 9.92412 1.55039C8.79827 0.521508 7.3191 -0.0337053 5.79432 0.000249748C4.26953 0.0342048 2.81654 0.654713 1.73761 1.73269C0.658685 2.81066 0.0368921 4.26311 0.00158949 5.78786C-0.0337131 7.31261 0.520193 8.79228 1.54807 9.91903C2.57596 11.0458 3.99867 11.7329 5.52025 11.8374C7.04183 11.9418 8.54512 11.4557 9.71737 10.48L13.0806 13.8439C13.1305 13.8938 13.1898 13.9334 13.255 13.9605C13.3203 13.9875 13.3902 14.0014 13.4608 14.0014C13.5315 14.0014 13.6014 13.9875 13.6666 13.9605C13.7319 13.9334 13.7912 13.8938 13.8411 13.8439C13.891 13.794 13.9306 13.7347 13.9577 13.6694C13.9847 13.6042 13.9986 13.5343 13.9986 13.4636C13.9986 13.393 13.9847 13.3231 13.9577 13.2578C13.9306 13.1926 13.891 13.1333 13.8411 13.0834Z" fill="white"/>
</svg>
