<svg width="19" height="19" viewBox="0 0 19 19" fill="none" xmlns="http://www.w3.org/2000/svg">
<path d="M0.78125 13.9597V16.2514" stroke="#A4A6B0" stroke-width="0.9375" stroke-linecap="round" stroke-linejoin="round"/>
<path d="M17.9688 13.9597V16.2514" stroke="#A4A6B0" stroke-width="0.9375" stroke-linecap="round" stroke-linejoin="round"/>
<path d="M16.252 8.80111V3.64486C16.252 3.34096 16.1312 3.04952 15.9163 2.83463C15.7015 2.61974 15.41 2.49902 15.1061 2.49902H3.64779C3.34389 2.49902 3.05245 2.61974 2.83756 2.83463C2.62267 3.04952 2.50195 3.34096 2.50195 3.64486V8.80111" fill="#A4A6B0"/>
<path d="M16.252 8.80111V3.64486C16.252 3.34096 16.1312 3.04952 15.9163 2.83463C15.7015 2.61974 15.41 2.49902 15.1061 2.49902H3.64779C3.34389 2.49902 3.05245 2.61974 2.83756 2.83463C2.62267 3.04952 2.50195 3.34096 2.50195 3.64486V8.80111" stroke="#A4A6B0" stroke-width="0.9375" stroke-linecap="round" stroke-linejoin="round"/>
<path d="M2.50195 8.80135V7.0826C2.50195 6.77871 2.62267 6.48726 2.83756 6.27237C3.05245 6.05749 3.34389 5.93677 3.64779 5.93677H8.23112C8.53501 5.93677 8.82646 6.05749 9.04135 6.27237C9.25623 6.48726 9.37695 6.77871 9.37695 7.0826V8.80135" stroke="#FAFAFB" stroke-width="0.9375" stroke-linecap="round" stroke-linejoin="round"/>
<path d="M9.375 8.80111V7.08236C9.375 6.77846 9.49572 6.48702 9.71061 6.27213C9.92549 6.05724 10.2169 5.93652 10.5208 5.93652H15.1042C15.4081 5.93652 15.6995 6.05724 15.9144 6.27213C16.1293 6.48702 16.25 6.77846 16.25 7.08236V8.80111" stroke="#FAFAFB" stroke-width="0.9375" stroke-linecap="round" stroke-linejoin="round"/>
<path d="M2.30903 8.80322H16.441C16.8462 8.80322 17.2348 8.96418 17.5213 9.2507C17.8078 9.53721 17.9688 9.92581 17.9688 10.331V13.9595H0.78125V10.331C0.78125 9.92581 0.942212 9.53721 1.22873 9.2507C1.51524 8.96418 1.90384 8.80322 2.30903 8.80322V8.80322Z" fill="#A4A6B0" stroke="#A4A6B0" stroke-width="0.9375" stroke-linecap="round" stroke-linejoin="round"/>
</svg>
