<svg width="40" height="40" viewBox="0 0 40 40" fill="none" xmlns="http://www.w3.org/2000/svg">
<mask id="mask0_9983_12317" style="mask-type:alpha" maskUnits="userSpaceOnUse" x="0" y="0" width="40" height="40">
<circle cx="20" cy="20" r="20" fill="#B5703B"/>
</mask>
<g mask="url(#mask0_9983_12317)">
<rect x="-2.73438" y="-2.73291" width="45.466" height="45.466" fill="#14161C"/>
</g>
<g clip-path="url(#clip0_9983_12317)">
<path fill-rule="evenodd" clip-rule="evenodd" d="M22.588 9.10124C21.149 7.99452 19.1449 7.99638 17.7079 9.10576L10.1327 14.9541C9.15219 15.711 8.578 16.8797 8.578 18.1184V27.4419C8.578 29.6497 10.3678 31.4395 12.5756 31.4395H24.6453C26.8531 31.4395 28.6429 29.6497 28.6429 27.4419V22.5262C28.6429 21.2815 28.0631 20.1078 27.0746 19.3514L22.5784 15.9109C21.1438 14.8132 19.1514 14.8139 17.7175 15.9126L13.9997 18.7616C13.7301 18.9682 13.6791 19.3542 13.8857 19.6238L15.0079 21.0883C15.2145 21.3579 15.6006 21.409 15.8702 21.2024L19.588 18.3535C19.9188 18.0999 20.3786 18.0997 20.7097 18.3531L25.2059 21.7935C25.434 21.9681 25.5678 22.239 25.5678 22.5262V27.4419C25.5678 27.9514 25.1548 28.3644 24.6453 28.3644H12.5756C12.0661 28.3644 11.6531 27.9514 11.6531 27.4419V18.1184C11.6531 17.8326 11.7856 17.5629 12.0119 17.3882L19.5871 11.5398C19.9187 11.2838 20.3812 11.2834 20.7133 11.5388L28.7941 17.7536C29.0633 17.9607 29.4494 17.9103 29.6565 17.641L30.7813 16.1785C30.9884 15.9092 30.938 15.5231 30.6687 15.316L22.588 9.10124Z" fill="white"/>
</g>
<defs>
<clipPath id="clip0_9983_12317">
<rect width="23.1671" height="23.1671" fill="white" transform="translate(8.41797 8.27246)"/>
</clipPath>
</defs>
</svg>
