<svg width="28" height="28" viewBox="0 0 28 28" fill="none" xmlns="http://www.w3.org/2000/svg">
<path d="M0 14C0 6.26801 6.26801 0 14 0V0C21.732 0 28 6.26801 28 14V14C28 21.732 21.732 28 14 28V28C6.26801 28 0 21.732 0 14V14Z" fill="#14161C"/>
<rect x="9.33203" y="6.90771" width="10.3281" height="14.5469" rx="1.5" fill="white"/>
<path d="M14.2363 9.52959C14.3518 9.32959 14.6404 9.32959 14.7559 9.52959L16.5976 12.7194C16.713 12.9194 16.5687 13.1694 16.3378 13.1694H12.6544C12.4235 13.1694 12.2792 12.9194 12.3946 12.7194L14.2363 9.52959Z" fill="#14161C"/>
<path d="M14.7559 18.8327C14.6404 19.0327 14.3518 19.0327 14.2363 18.8327L12.3946 15.6429C12.2792 15.4429 12.4235 15.1929 12.6544 15.1929L16.3378 15.1929C16.5687 15.1929 16.713 15.4429 16.5976 15.6429L14.7559 18.8327Z" fill="#14161C"/>
</svg>
