<svg width="129" height="29" viewBox="0 0 129 29" fill="none" xmlns="http://www.w3.org/2000/svg">
<path d="M28.0742 14.0232C28.0742 16.7921 27.2531 19.4989 25.7148 21.8012C24.1765 24.1035 21.99 25.8979 19.4318 26.9575C16.8736 28.0171 14.0587 28.2944 11.343 27.7542C8.62723 27.214 6.13267 25.8806 4.17473 23.9227C2.21679 21.9648 0.883424 19.4702 0.343231 16.7545C-0.196962 14.0387 0.0802848 11.2238 1.13991 8.66563C2.19954 6.10746 3.99395 3.92096 6.29624 2.38262C8.59853 0.844279 11.3053 0.0231934 14.0742 0.0231934V7.02319C12.6898 7.02319 11.3364 7.43374 10.1852 8.20291C9.03409 8.97208 8.13688 10.0653 7.60707 11.3444C7.07726 12.6235 6.93863 14.031 7.20873 15.3888C7.47883 16.7467 8.14551 17.994 9.12448 18.9729C10.1034 19.9519 11.3507 20.6186 12.7086 20.8887C14.0665 21.1588 15.4739 21.0202 16.753 20.4904C18.0321 19.9605 19.1253 19.0633 19.8945 17.9122C20.6637 16.761 21.0742 15.4077 21.0742 14.0232H28.0742Z" fill="#464851"/>
<path d="M26.8125 0.0233663L26.7912 0.0231934L15.3443 0.0233663V7.02335H21.0718V12.7502L28.0717 12.7502L28.0718 1.30372L28.0716 1.2826V0.0233663H26.8125Z" fill="#464851"/>
<path fill-rule="evenodd" clip-rule="evenodd" d="M40.6379 22.0234H37.0941L43.5463 3.69611H47.6449L54.1059 22.0234H50.5622L49.0438 17.5042H42.1535L40.6379 22.0234ZM45.6672 7.45463L48.1477 14.8374H43.0479L45.524 7.45463H45.6672Z" fill="#464851"/>
<path fill-rule="evenodd" clip-rule="evenodd" d="M58.9394 26.9899C59.7746 27.3061 60.7739 27.4642 61.9373 27.4642C63.1722 27.4642 64.2759 27.2733 65.2483 26.8915C66.2208 26.5097 66.9874 25.934 67.5482 25.1643C68.109 24.3947 68.3894 23.4223 68.3894 22.247V8.27784H65.1946V10.5509H65.0157C64.8546 10.2168 64.6189 9.86179 64.3087 9.48594C63.9985 9.10412 63.5809 8.77898 63.0559 8.51051C62.5368 8.23608 61.8746 8.09887 61.0692 8.09887C60.0132 8.09887 59.0557 8.37032 58.1966 8.91321C57.3375 9.45015 56.6544 10.2406 56.1473 11.2847C55.6462 12.3227 55.3956 13.5965 55.3956 15.1058C55.3956 16.6033 55.6462 17.8501 56.1473 18.8465C56.6544 19.8368 57.3345 20.5825 58.1877 21.0837C59.0468 21.5788 60.0043 21.8264 61.0603 21.8264C61.8478 21.8264 62.501 21.7071 63.0201 21.4685C63.5451 21.2298 63.9657 20.9345 64.2819 20.5825C64.604 20.2305 64.8486 19.8875 65.0157 19.5534H65.1767V22.1575C65.1767 23.1717 64.8755 23.8996 64.2729 24.3411C63.6703 24.7885 62.9097 25.0122 61.9909 25.0122C61.3407 25.0122 60.8007 24.9227 60.3712 24.7438C59.9476 24.5707 59.6105 24.35 59.36 24.0815C59.1094 23.819 58.9185 23.5536 58.7872 23.2851L55.8699 23.9921C56.0668 24.6304 56.4188 25.2121 56.9259 25.7371C57.433 26.2621 58.1041 26.6797 58.9394 26.9899ZM63.7181 18.7838C63.2348 19.1179 62.6502 19.2849 61.9641 19.2849C61.2542 19.2849 60.6546 19.1119 60.1654 18.7659C59.6821 18.4139 59.3152 17.9247 59.0647 17.2983C58.8201 16.6659 58.6978 15.9291 58.6978 15.0879C58.6978 14.2587 58.8201 13.5189 59.0647 12.8686C59.3093 12.2124 59.6732 11.6963 60.1564 11.3205C60.6397 10.9446 61.2422 10.7567 61.9641 10.7567C62.6621 10.7567 63.2497 10.9386 63.727 11.3026C64.2103 11.6605 64.5742 12.1646 64.8188 12.8149C65.0694 13.4652 65.1946 14.2229 65.1946 15.0879C65.1946 15.9649 65.0694 16.7166 64.8188 17.343C64.5682 17.9695 64.2013 18.4497 63.7181 18.7838Z" fill="#464851"/>
<path fill-rule="evenodd" clip-rule="evenodd" d="M77.793 22.2918C76.4148 22.2918 75.2246 22.0054 74.2224 21.4327C73.2261 20.854 72.4594 20.0367 71.9225 18.9807C71.3856 17.9188 71.1171 16.6689 71.1171 15.2311C71.1171 13.8172 71.3856 12.5763 71.9225 11.5084C72.4654 10.4345 73.2231 9.59929 74.1955 9.0027C75.1679 8.40014 76.3104 8.09887 77.6229 8.09887C78.4701 8.09887 79.2695 8.23608 80.0212 8.51051C80.7789 8.77898 81.4471 9.19659 82.0258 9.76335C82.6104 10.3301 83.0698 11.052 83.4039 11.929C83.738 12.8 83.905 13.8381 83.905 15.0432V16.0365H74.3302C74.3398 16.8016 74.4858 17.4608 74.7682 18.0142C75.0606 18.581 75.4692 19.0165 75.9942 19.3207C76.5192 19.619 77.1337 19.7682 77.8377 19.7682C78.309 19.7682 78.7356 19.7026 79.1174 19.5713C79.4992 19.4341 79.8303 19.2342 80.1107 18.9717C80.3911 18.7092 80.6029 18.3841 80.7461 17.9963L83.7708 18.3364C83.5799 19.1358 83.216 19.8338 82.679 20.4304C82.1481 21.021 81.468 21.4804 80.6387 21.8085C79.8094 22.1307 78.8608 22.2918 77.793 22.2918ZM74.7503 12.3585C74.5055 12.8163 74.3675 13.3145 74.3363 13.853H80.7998C80.7938 13.2325 80.6596 12.6807 80.3971 12.1974C80.1346 11.7082 79.7677 11.3234 79.2964 11.043C78.831 10.7626 78.2881 10.6224 77.6677 10.6224C77.0055 10.6224 76.4238 10.7835 75.9226 11.1057C75.4215 11.4219 75.0307 11.8395 74.7503 12.3585Z" fill="#464851"/>
<path d="M89.8868 13.9693C89.8868 13.3071 90.0091 12.7433 90.2537 12.278C90.5043 11.8126 90.8473 11.4577 91.2829 11.2131C91.7243 10.9625 92.2285 10.8372 92.7952 10.8372C93.6304 10.8372 94.2837 11.0967 94.755 11.6158C95.2323 12.1348 95.4709 12.8537 95.4709 13.7724V22.0233H98.7104V13.2713C98.7164 12.1736 98.5225 11.2399 98.1287 10.4703C97.741 9.70071 97.1921 9.11307 96.4821 8.70739C95.7782 8.30171 94.9519 8.09887 94.0033 8.09887C92.9772 8.09887 92.1151 8.32557 91.4171 8.77898C90.725 9.23239 90.2209 9.84389 89.9047 10.6135H89.7437V8.27784H86.6473V22.0233H89.8868V13.9693Z" fill="#464851"/>
<path d="M107.999 22.2918C106.627 22.2918 105.449 21.9905 104.464 21.3879C103.486 20.7854 102.731 19.9531 102.2 18.8912C101.675 17.8233 101.413 16.5943 101.413 15.2043C101.413 13.8082 101.681 12.5763 102.218 11.5084C102.755 10.4345 103.513 9.59929 104.491 9.0027C105.475 8.40014 106.639 8.09887 107.981 8.09887C109.097 8.09887 110.084 8.30469 110.943 8.71634C111.808 9.12202 112.497 9.69773 113.01 10.4435C113.523 11.1832 113.816 12.0483 113.887 13.0386H110.791C110.666 12.3764 110.368 11.8246 109.896 11.3831C109.431 10.9357 108.807 10.7119 108.026 10.7119C107.364 10.7119 106.782 10.8909 106.281 11.2489C105.78 11.6009 105.389 12.108 105.109 12.7702C104.834 13.4324 104.697 14.2259 104.697 15.1506C104.697 16.0872 104.834 16.8926 105.109 17.5668C105.383 18.2349 105.768 18.751 106.263 19.1149C106.764 19.4729 107.352 19.6519 108.026 19.6519C108.503 19.6519 108.93 19.5624 109.306 19.3834C109.687 19.1984 110.007 18.933 110.263 18.5869C110.52 18.2409 110.696 17.8203 110.791 17.3251H113.887C113.81 18.2976 113.523 19.1597 113.028 19.9114C112.533 20.6571 111.859 21.2418 111.006 21.6653C110.153 22.083 109.15 22.2918 107.999 22.2918Z" fill="#464851"/>
<path d="M118.559 27.1779C118.118 27.1779 117.709 27.1422 117.333 27.0706C116.963 27.0049 116.668 26.9274 116.447 26.8379L117.199 24.3143C117.67 24.4515 118.091 24.5172 118.461 24.5112C118.831 24.5052 119.156 24.3889 119.436 24.1622C119.722 23.9414 119.964 23.5716 120.161 23.0525L120.438 22.3098L115.454 8.27795H118.89L122.058 18.6586H122.201L125.378 8.27795H128.823L123.32 23.6879C123.063 24.4157 122.723 25.0392 122.3 25.5582C121.876 26.0832 121.357 26.4829 120.743 26.7574C120.134 27.0377 119.406 27.1779 118.559 27.1779Z" fill="#464851"/>
</svg>
