<svg width="32" height="32" viewBox="0 0 32 32" fill="none" xmlns="http://www.w3.org/2000/svg">
<path d="M7.56005 27.9114C8.91741 27.9114 12.1882 26.4835 14.196 25.0536C14.4098 24.9076 14.5781 24.8538 14.7564 24.8538C14.8976 24.8629 15.0306 24.8721 15.1556 24.8721C23.2145 24.8661 28.9189 20.4529 28.9189 14.483C28.9189 8.72859 23.1754 4.08887 15.9995 4.08887C8.82165 4.08887 3.07812 8.72859 3.07812 14.483C3.07812 18.0706 5.23862 21.277 8.89955 23.2509C9.10111 23.3622 9.15893 23.5297 9.05558 23.7252C8.40246 24.8022 7.3125 26.0179 6.87433 26.588C6.38281 27.2083 6.66651 27.9114 7.56005 27.9114Z" fill="white" fill-opacity="0.96"/>
</svg>
