<svg width="28" height="29" viewBox="0 0 28 29" fill="none" xmlns="http://www.w3.org/2000/svg">
<path d="M0 14.1768C0 6.44477 6.26801 0.176758 14 0.176758V0.176758C21.732 0.176758 28 6.44477 28 14.1768V14.1768C28 21.9087 21.732 28.1768 14 28.1768V28.1768C6.26801 28.1768 0 21.9087 0 14.1768V14.1768Z" fill="#14161C"/>
<path d="M7.34056 13.5864C7.49292 13.7341 7.71458 13.7329 7.86007 13.5784C9.55653 11.781 11.78 10.8315 14.2767 10.8315C16.7877 10.8315 19.0236 11.7867 20.7077 13.5864C20.8474 13.7261 21.0611 13.7192 21.2121 13.5715L22.1725 12.6096C22.3098 12.4737 22.3067 12.2968 22.1955 12.1665C20.5485 10.1307 17.4719 8.67017 14.2767 8.67017C11.0869 8.67017 7.9987 10.1307 6.35714 12.1665C6.30155 12.2316 6.27479 12.3082 6.27754 12.3855C6.28097 12.4632 6.31459 12.5416 6.38048 12.6096L7.34056 13.5864Z" fill="white"/>
<path d="M10.2085 16.4452C10.3752 16.6041 10.588 16.5848 10.741 16.4165C11.581 15.5026 12.9206 14.8579 14.276 14.8635C15.6465 14.8579 16.9902 15.5232 17.8412 16.4396C17.9805 16.5997 18.1767 16.5905 18.3442 16.4396L19.4223 15.3815C19.5472 15.2581 19.5633 15.0874 19.4467 14.9502C18.3806 13.6597 16.4247 12.7193 14.276 12.7193C12.1273 12.7193 10.1728 13.6597 9.10565 14.9502C8.98898 15.0874 8.99928 15.2468 9.12967 15.3815L10.2085 16.4452Z" fill="white"/>
<path d="M14.8628 19.896C14.5876 20.1629 14.4434 20.239 14.2781 20.239C14.1133 20.239 13.9692 20.1573 13.6927 19.896L12.012 18.2765C11.8905 18.1612 11.8548 18.0142 11.9344 17.8909C12.41 17.253 13.285 16.7376 14.2781 16.7376C15.2457 16.7376 16.1104 17.2312 16.5853 17.8385C16.6971 17.9781 16.6683 18.1575 16.5482 18.2765L14.8628 19.896Z" fill="white"/>
</svg>
