<svg width="28" height="29" viewBox="0 0 28 29" fill="none" xmlns="http://www.w3.org/2000/svg">
<path d="M0 14.6187C0 6.88667 6.26801 0.618652 14 0.618652V0.618652C21.732 0.618652 28 6.88667 28 14.6187V14.6187C28 22.3506 21.732 28.6187 14 28.6187V28.6187C6.26801 28.6187 0 22.3506 0 14.6187V14.6187Z" fill="#14161C"/>
<path d="M10.5191 22.8965H18.039C19.2585 22.8965 19.8979 22.2425 19.8979 20.926V15.2383C19.8979 13.9262 19.2585 13.2788 18.039 13.2788H10.5191C9.2981 13.2788 8.66016 13.9262 8.66016 15.2383V20.926C8.66016 22.2425 9.2981 22.8965 10.5191 22.8965ZM10.1291 13.9535H11.6329V11.245C11.6329 9.36584 12.8391 8.33457 14.2757 8.33457C15.7095 8.33457 16.9332 9.36584 16.9332 11.245V13.9535H18.4304V11.3942C18.4304 8.4311 16.4693 6.89648 14.2757 6.89648C12.0887 6.89648 10.1291 8.4311 10.1291 11.3942V13.9535Z" fill="white"/>
</svg>
