<svg width="28" height="29" viewBox="0 0 28 29" fill="none" xmlns="http://www.w3.org/2000/svg">
<path d="M0 14.4419C0 6.70991 6.26801 0.441895 14 0.441895V0.441895C21.732 0.441895 28 6.70991 28 14.4419V14.4419C28 22.1739 21.732 28.4419 14 28.4419V28.4419C6.26801 28.4419 0 22.1739 0 14.4419V14.4419Z" fill="#14161C"/>
<path d="M19.8566 15.9786L19.8467 15.8446C19.6766 13.7527 18.66 12.4605 17.7631 11.3202C16.9892 10.3358 16.3204 9.48544 16.3204 8.27955C16.3204 8.07228 16.2061 7.88197 16.0229 7.78515C15.8408 7.68834 15.6187 7.69932 15.447 7.81576C14.0853 8.73563 12.9489 10.2899 12.5513 11.7746C12.3112 12.6704 12.1439 13.5684 12.0738 14.3067C12.0197 14.2722 11.9688 14.2312 11.9218 14.1831C11.5412 13.7948 11.4722 13.0335 11.4778 12.7732C11.4816 12.5851 11.3908 12.4068 11.236 12.3002C11.0818 12.1925 10.8833 12.1695 10.7094 12.24C10.6307 12.2712 8.77727 13.05 8.68482 16.0928C8.67826 16.1951 8.67773 16.2974 8.67773 16.3996C8.67773 19.3331 11.1902 21.7197 14.2778 21.7197C17.3655 21.7197 19.8779 19.3331 19.8779 16.3997C19.8779 16.2526 19.8675 16.1153 19.8566 15.9786Z" fill="white"/>
</svg>
