<svg width="80" height="80" viewBox="0 0 80 80" fill="none" xmlns="http://www.w3.org/2000/svg">
<g clip-path="url(#clip0_9869_22241)">
<path fill-rule="evenodd" clip-rule="evenodd" d="M49.3957 2.86198C44.4265 -0.959715 37.5061 -0.953325 32.544 2.87755L6.38534 23.0729C2.99961 25.6868 1.01683 29.7225 1.01683 33.9998V66.1955C1.01683 73.8194 7.19728 79.9999 14.8213 79.9999H56.5C64.124 79.9999 70.3045 73.8194 70.3045 66.1955V49.2206C70.3045 44.9224 68.3024 40.8695 64.8889 38.2575L49.3627 26.377C44.4088 22.5863 37.5284 22.5887 32.5772 26.3828L19.7391 36.2208C18.8081 36.9342 18.6317 38.2673 19.3451 39.1983L23.2204 44.2555C23.9339 45.1865 25.2669 45.3629 26.1979 44.6494L39.0361 34.8115C40.1787 33.9359 41.7665 33.9353 42.9097 34.8101L58.4359 46.6907C59.2236 47.2935 59.6857 48.2287 59.6857 49.2206V66.1955C59.6857 67.9548 58.2594 69.3811 56.5 69.3811H14.8213C13.0619 69.3811 11.6356 67.9548 11.6356 66.1955V33.9998C11.6356 33.0127 12.0932 32.0814 12.8745 31.4782L39.0332 11.2829C40.1783 10.3988 41.7753 10.3974 42.922 11.2793L70.8263 32.74C71.7561 33.4551 73.0894 33.281 73.8045 32.3513L77.6887 27.3009C78.4037 26.3711 78.2297 25.0378 77.2999 24.3227L49.3957 2.86198Z" fill="#14161C"/>
</g>
<defs>
<clipPath id="clip0_9869_22241">
<rect width="80" height="80" fill="white"/>
</clipPath>
</defs>
</svg>
