<svg width="20" height="17" viewBox="0 0 20 17" fill="none" xmlns="http://www.w3.org/2000/svg">
<path d="M2.65331 12.7323H2.82858V6.42397C2.82858 4.04335 4.27887 2.60089 6.67553 2.60089H15.9778C15.9676 0.905499 15.047 0 13.3245 0H2.65331C0.920952 0 0 0.915866 0 2.62964V10.1027C0 11.8245 0.920952 12.7323 2.65331 12.7323Z" fill="#A4A6B0"/>
<path fill-rule="evenodd" clip-rule="evenodd" d="M6.67553 16.5269H17.349C19.079 16.5269 20 15.6112 20 13.8972V6.42417C20 4.70785 19.079 3.79453 17.349 3.79453H6.67553C4.94317 3.79453 4.02457 4.70785 4.02457 6.42417V13.8972C4.02457 15.6165 4.94317 16.5269 6.67553 16.5269ZM6.82577 14.7894C6.14033 14.7894 5.7671 14.4446 5.7671 13.7253V13.043L7.43569 11.5506C7.7162 11.3098 8.00806 11.1921 8.3007 11.1921C8.61994 11.1921 8.93058 11.3098 9.21343 11.5663L10.4157 12.6561L13.4375 9.97926C13.5921 9.84292 13.7517 9.74472 13.9184 9.68056C14.0846 9.61679 14.2575 9.58686 14.4391 9.58686C14.8049 9.58686 15.1503 9.72027 15.4406 9.98455L18.2575 12.6273V13.7253C18.2575 14.4446 17.8788 14.7894 17.2039 14.7894H6.82577ZM9.92938 10.1467C9.02917 10.1467 8.29561 9.40259 8.29561 8.49964C8.29561 7.61233 9.02917 6.86821 9.92938 6.86821C10.83 6.86821 11.5608 7.61233 11.5608 8.49964C11.5608 9.40259 10.83 10.1467 9.92938 10.1467Z" fill="#A4A6B0"/>
</svg>
