<svg width="28" height="29" viewBox="0 0 28 29" fill="none" xmlns="http://www.w3.org/2000/svg">
<path d="M0 14.3535C0 6.62153 6.26801 0.353516 14 0.353516V0.353516C21.732 0.353516 28 6.62153 28 14.3535V14.3535C28 22.0855 21.732 28.3535 14 28.3535V28.3535C6.26801 28.3535 0 22.0855 0 14.3535V14.3535Z" fill="#14161C"/>
<path d="M20.5777 8.75614V8.75614C20.5777 8.46622 20.3426 8.2312 20.0527 8.2312H8.50196C8.21205 8.2312 7.97702 8.46622 7.97702 8.75614V8.75614C7.97702 11.2753 9.46136 13.4512 11.6012 14.4587L8.05919 20.0249C7.90353 20.2695 7.97564 20.594 8.22026 20.7497V20.7497C8.46487 20.9053 8.78935 20.8332 8.94501 20.5886L10.4608 18.2066H18.0941L19.61 20.5887C19.7656 20.8332 20.0901 20.9053 20.3346 20.7496V20.7496C20.5791 20.594 20.6512 20.2696 20.4956 20.0251L16.9535 14.459C19.0933 13.4512 20.5777 11.2753 20.5777 8.75614ZM17.4257 17.1567H11.129L12.6092 14.831C13.1409 14.9772 13.6999 15.0567 14.2776 15.0567C14.8553 15.0567 15.4143 14.9772 15.946 14.831L17.4257 17.1567Z" fill="white"/>
</svg>
