<svg width="32" height="32" viewBox="0 0 32 32" fill="none" xmlns="http://www.w3.org/2000/svg">
<path d="M6.41595 27.0983H25.5867C27.9753 27.0983 29.192 25.8998 29.192 23.5295V12.6039C29.192 10.2336 27.9753 9.03514 25.5867 9.03514H6.41595C4.03448 9.03514 2.80859 10.2336 2.80859 12.6039V23.5295C2.80859 25.8998 4.03448 27.0983 6.41595 27.0983ZM10.1535 9.94586H12.1747V8.01863C12.1747 7.21662 12.6407 6.76885 13.461 6.76885H18.5396C19.3599 6.76885 19.8168 7.21863 19.8168 8.01863V9.92757H21.84V8.01886C21.84 5.90859 20.699 4.90234 18.5985 4.90234H13.3889C11.382 4.90234 10.1535 5.90859 10.1535 8.01886V9.94586Z" fill="white" fill-opacity="0.96"/>
</svg>
